<svg width="600" height="155" viewBox="0 0 600 155" fill="none" xmlns="http://www.w3.org/2000/svg">
<path d="M387.215 25.1899V126.329C387.215 126.962 386.709 127.468 386.076 127.468H366.709C361.392 127.468 356.203 125.19 352.658 121.266L292.152 54.0507V126.456C292.152 126.962 291.646 127.468 291.139 127.468H267.342C266.835 127.468 266.329 126.962 266.329 126.456V25.3165C266.329 24.6836 266.835 24.1772 267.468 24.1772H292.532C297.848 24.1772 303.038 26.4557 306.582 30.3798L361.266 90.8861V25.1899C361.266 24.6836 361.772 24.1772 362.278 24.1772H386.203C386.709 24.1772 387.215 24.6836 387.215 25.1899Z" fill="#0D212E"/>
<path d="M482.532 127.468H400C399.494 127.468 399.114 127.089 399.114 126.582V105.443C399.114 104.937 399.494 104.557 400 104.557H486.076C490 104.557 493.164 101.392 493.164 97.4684V94.3038C493.164 90.3798 490 87.2152 486.076 87.2152H430.253C419.494 87.2152 411.392 84.3038 405.823 78.481C400.253 72.6583 397.468 65.0633 397.468 55.6962C397.468 46.3291 400.253 38.7342 405.823 32.9114C411.392 27.0886 419.494 24.1772 430.253 24.1772H539.494C540 24.1772 540.38 24.8102 540.127 25.1899L528.608 46.2026C528.354 46.7089 527.848 46.9621 527.342 46.9621H426.709C422.785 46.9621 419.62 50.1266 419.62 54.0507V57.2152C419.62 61.1393 422.785 64.3038 426.709 64.3038H482.532C493.291 64.3038 501.392 67.2152 506.962 73.1646C512.532 78.9874 515.316 86.5823 515.316 95.9494C515.316 105.316 512.532 112.911 506.962 118.734C501.392 124.557 493.291 127.468 482.532 127.468Z" fill="#0D212E"/>
<path d="M59.2405 127.468H31.6455C31.0126 127.468 30.5063 126.709 30.8861 126.076L79.7468 37.0886C84.0506 29.114 92.405 24.1772 101.519 24.1772C110.633 24.1772 112.911 26.2026 117.342 29.8734C119.24 31.3924 120.759 33.2912 122.025 35.3165L153.165 82.6583C154.43 84.3038 156.962 84.3038 158.228 82.6583L204.557 34.8102C205.316 34.0507 206.076 33.1646 206.709 32.4051C211.519 27.2152 218.228 24.1772 225.443 24.1772H249.747C250.38 24.1772 251.013 24.6836 251.013 25.4431V126.456C251.013 127.089 250.506 127.595 249.873 127.595H225.949C225.316 127.595 224.81 127.089 224.81 126.456V53.038C224.81 52.0253 223.671 51.6456 223.038 52.4051L178.228 97.595C177.595 98.2279 177.089 98.8608 176.456 99.4937C166.456 110.506 150 111.646 138.608 102.911C136.203 101.013 134.177 98.7342 132.532 96.2026L103.418 52.1519C102.658 51.1393 101.139 51.3924 100.506 52.4051L60.7595 126.456C60.5063 126.962 59.8734 127.342 59.2405 127.342" fill="#0D212E"/>
<path d="M561.266 53.4178C553.165 53.4178 546.709 46.8355 546.709 38.8608C546.709 30.8861 553.291 24.3038 561.266 24.3038C569.241 24.3038 575.823 30.8861 575.823 38.8608C575.823 46.8355 569.241 53.4178 561.266 53.4178Z" fill="#4DBB7C"/>
</svg>
