<svg width="600" height="193" viewBox="0 0 600 193" fill="none" xmlns="http://www.w3.org/2000/svg">
<path d="M389.687 21.0183V125.196C389.687 125.849 389.165 126.371 388.512 126.371H368.668C363.185 126.371 357.833 124.021 354.178 119.974L291.906 50.7833V125.326C291.906 125.849 291.384 126.371 290.862 126.371H266.319C265.796 126.371 265.274 125.849 265.274 125.326V21.1488C265.274 20.4961 265.796 19.9739 266.449 19.9739H292.298C297.781 19.9739 303.003 22.3237 306.789 26.3707L363.185 88.6423V21.0183C363.185 20.4961 363.708 19.9739 364.23 19.9739H388.773C389.295 19.9739 389.817 20.4961 389.817 21.0183" fill="#0D212E"/>
<path d="M487.598 126.371H402.611C402.089 126.371 401.697 125.979 401.697 125.457V103.655C401.697 103.133 402.089 102.741 402.611 102.741H491.253C495.3 102.741 498.564 99.4778 498.564 95.4308V92.1671C498.564 88.1201 495.3 84.8564 491.253 84.8564H433.812C422.846 84.8564 414.36 81.8538 408.747 75.8485C403.003 69.8433 400.261 62.0104 400.261 52.4804C400.261 42.9504 403.133 34.9869 408.747 28.9817C414.491 22.9765 422.846 19.9739 433.812 19.9739H546.214C546.736 19.9739 547.128 20.6266 546.867 21.0183L534.987 42.6893C534.726 43.2115 534.204 43.4726 533.681 43.4726H430.157C426.11 43.4726 422.846 46.7363 422.846 50.7833V54.047C422.846 58.094 426.11 61.3577 430.157 61.3577H462.533H487.598C498.564 61.3577 507.05 64.3603 512.663 70.3655C518.407 76.3707 521.279 84.2036 521.279 93.8642C521.279 103.525 518.407 111.227 512.663 117.232C506.919 123.238 498.564 126.24 487.598 126.24" fill="#0D212E"/>
<path d="M51.9582 126.371H23.6293C22.9765 126.371 22.4543 125.587 22.846 124.935L73.1071 33.2898C77.5457 25.0653 86.1619 19.9739 95.5614 19.9739C104.961 19.9739 107.311 22.0626 111.88 25.8485C113.838 27.4151 115.405 29.3734 116.71 31.3316L148.695 80.1566C150 81.8538 152.48 81.8538 153.916 80.1566L201.567 30.9399C202.35 30.1566 203.133 29.2428 203.786 28.4595C208.747 23.107 215.666 19.9739 222.977 19.9739H247.911C248.564 19.9739 249.217 20.4961 249.217 21.2794V125.196C249.217 125.849 248.695 126.24 248.172 126.24H223.629C222.977 126.24 222.585 125.718 222.585 125.196V49.7389C222.585 48.6945 221.41 48.3029 220.757 49.0861L174.543 95.5613C173.89 96.2141 173.368 96.8668 172.715 97.5196C162.533 108.877 145.431 110.052 133.812 101.044C131.332 99.2167 129.243 96.7363 127.546 94.1253L97.5196 48.8251C96.7363 47.7807 95.1697 48.0418 94.517 49.0861L53.6554 125.326C53.3943 125.849 52.7415 126.24 52.0888 126.24" fill="#0D212E"/>
<path d="M568.799 50.1305C560.444 50.1305 553.786 43.342 553.786 35.1174C553.786 26.8929 560.574 20.1044 568.799 20.1044C577.023 20.1044 583.812 26.8929 583.812 35.1174C583.812 43.342 577.023 50.1305 568.799 50.1305Z" fill="#4DBB7C"/>
<path d="M30.4178 174.543C26.893 174.543 24.0209 173.368 21.8016 171.149C19.5823 168.93 18.4073 165.927 18.4073 162.533C18.4073 159.138 19.5823 156.136 21.8016 153.916C24.0209 151.697 26.893 150.522 30.4178 150.522C33.9426 150.522 33.812 150.914 35.3786 151.567C36.9452 152.219 38.2507 153.264 39.2951 154.439C40.3395 155.614 41.1228 157.18 41.5144 158.877H38.5118C37.859 157.18 36.8147 155.875 35.3786 154.83C33.9426 153.916 32.2455 153.394 30.4178 153.394C28.5901 153.394 25.5875 154.308 23.8904 156.005C22.1932 157.702 21.41 159.922 21.41 162.663C21.41 165.405 22.1932 167.624 23.8904 169.321C25.5875 171.018 27.6763 171.932 30.4178 171.932C33.1593 171.932 34.0731 171.41 35.5092 170.366C36.9452 169.321 37.9896 167.885 38.6423 166.188H41.6449C40.9922 168.799 39.6867 170.888 37.5979 172.454C35.6397 174.021 33.1593 174.804 30.4178 174.804" fill="#0D212E"/>
<path d="M49.0862 169.974C50.3917 171.279 51.9583 171.932 53.9165 171.932C55.8747 171.932 57.4413 171.279 58.7468 169.974C60.0523 168.668 60.705 167.102 60.705 165.144C60.705 163.185 60.0523 161.619 58.7468 160.313C57.4413 159.008 55.8747 158.486 53.9165 158.486C51.9583 158.486 50.3917 159.138 49.0862 160.313C47.7807 161.619 47.2585 163.185 47.2585 165.144C47.2585 167.102 47.9113 168.668 49.0862 169.974ZM53.786 174.543C51.9583 174.543 50.3917 174.151 48.9557 173.368C47.5196 172.585 46.3447 171.41 45.5614 169.974C44.7781 168.538 44.3865 166.971 44.3865 165.144C44.3865 162.402 45.3003 160.183 47.128 158.355C48.9557 156.527 51.175 155.614 53.9165 155.614C56.658 155.614 57.3108 156.005 58.8773 156.788C60.3134 157.572 61.4883 158.747 62.2716 160.183C63.0549 161.619 63.5771 163.185 63.5771 165.013C63.5771 167.755 62.6632 169.974 60.8356 171.802C59.0079 173.629 56.658 174.543 53.9165 174.543" fill="#0D212E"/>
<path d="M76.7625 155.744C78.8512 155.744 80.5484 156.397 81.8539 157.833C83.1593 159.269 83.8121 161.097 83.8121 163.316V174.151H80.94V163.969C80.94 162.794 80.8095 161.749 80.4178 160.836C80.0262 159.922 79.504 159.399 78.7207 158.877C77.9374 158.486 77.1541 158.225 76.1097 158.225C74.5431 158.225 73.2377 158.747 72.1933 159.922C71.1489 161.097 70.6267 162.533 70.6267 164.23V174.151H67.7546V156.005H69.7129L70.2351 158.877C70.6267 158.225 71.2794 157.572 71.9322 157.18C72.5849 156.658 73.3682 156.266 74.1515 156.136C74.9348 155.875 75.8486 155.744 76.7625 155.744Z" fill="#0D212E"/>
<path d="M98.3029 155.744C100.392 155.744 102.089 156.397 103.394 157.833C104.7 159.269 105.352 161.097 105.352 163.316V174.151H102.48V163.969C102.48 162.794 102.35 161.749 101.958 160.836C101.567 159.922 101.044 159.399 100.261 158.877C99.4778 158.486 98.6945 158.225 97.6501 158.225C96.0836 158.225 94.7781 158.747 93.7337 159.922C92.6893 161.097 92.1671 162.533 92.1671 164.23V174.151H89.295V156.005H91.2533L91.7755 158.877C92.1671 158.225 92.8198 157.572 93.4726 157.18C94.1253 156.658 94.9086 156.266 95.6919 156.136C96.4752 155.875 97.389 155.744 98.3029 155.744Z" fill="#0D212E"/>
<path d="M118.538 158.355C117.494 158.355 116.449 158.616 115.666 159.008C114.752 159.399 114.099 160.052 113.447 160.835C112.924 161.619 112.533 162.533 112.272 163.577H124.804C124.543 162.533 124.152 161.619 123.629 160.835C123.107 160.052 122.324 159.399 121.41 159.008C120.496 158.616 119.582 158.355 118.538 158.355ZM127.676 165.144C127.676 165.405 127.676 165.796 127.676 166.188H112.272C112.533 167.885 113.185 169.191 114.36 170.235C115.535 171.279 116.971 171.802 118.668 171.802C120.366 171.802 121.018 171.54 122.063 171.018C122.977 170.496 123.76 169.713 124.413 168.668H127.415C126.632 170.496 125.457 172.063 124.021 173.107C122.454 174.151 120.757 174.674 118.799 174.674C116.841 174.674 113.969 173.76 112.272 171.932C110.444 170.104 109.661 167.885 109.661 165.144C109.661 162.402 110.574 160.183 112.272 158.355C114.099 156.527 116.188 155.614 118.799 155.614C121.41 155.614 123.76 156.527 125.457 158.355C127.154 160.183 128.068 162.402 128.068 165.144" fill="#0D212E"/>
<path d="M139.948 174.543C138.12 174.543 136.554 174.151 135.118 173.368C133.681 172.585 132.507 171.41 131.723 169.974C130.94 168.538 130.548 166.971 130.548 165.144C130.548 162.402 131.462 160.183 133.29 158.355C135.118 156.527 137.337 155.614 139.948 155.614C142.559 155.614 143.995 156.266 145.561 157.441C147.128 158.616 148.172 160.183 148.825 162.141H145.953C145.431 160.966 144.648 160.052 143.603 159.399C142.559 158.747 141.384 158.355 140.078 158.355C138.773 158.355 136.684 159.008 135.379 160.313C134.204 161.619 133.551 163.185 133.551 165.144C133.551 167.102 133.812 167.493 134.334 168.538C134.856 169.582 135.64 170.365 136.684 170.888C137.728 171.54 138.773 171.802 140.078 171.802C141.384 171.802 142.559 171.41 143.603 170.757C144.648 170.104 145.431 169.191 145.953 167.885H148.825C148.303 169.843 147.128 171.54 145.561 172.715C143.995 173.89 142.167 174.543 139.948 174.543Z" fill="#0D212E"/>
<path d="M160.183 171.54H162.141V174.151H159.791C157.833 174.151 156.266 173.629 155.222 172.454C154.047 171.279 153.525 169.843 153.525 167.754V158.616H150.392V158.094L156.005 152.219H156.397V156.005H162.011V158.616H156.397V167.754C156.397 168.538 156.527 169.321 156.789 169.843C157.05 170.365 157.572 170.888 158.094 171.149C158.616 171.41 159.4 171.54 160.183 171.54Z" fill="#0D212E"/>
<path d="M199.608 174.543C196.997 174.543 194.909 173.89 193.342 172.454C191.775 171.149 190.992 169.321 190.992 166.971H193.995C193.995 168.407 194.517 169.582 195.561 170.366C196.606 171.149 197.911 171.671 199.608 171.671C201.305 171.671 201.436 171.54 202.219 171.149C203.003 170.888 203.655 170.366 204.178 169.713C204.7 169.06 204.961 168.407 204.961 167.624C204.961 166.841 204.961 166.841 204.83 166.58C204.83 166.319 204.569 165.927 204.439 165.796C204.308 165.535 204.047 165.405 203.655 165.144C203.264 164.883 203.003 164.752 202.742 164.621C202.48 164.621 202.089 164.36 201.567 164.23C201.044 164.099 200.653 163.969 200.392 163.838C200.131 163.838 199.739 163.708 199.086 163.577C198.433 163.446 197.911 163.316 197.52 163.185C197.128 163.185 196.606 162.924 196.084 162.794C195.431 162.533 194.909 162.402 194.648 162.141C194.256 162.01 193.864 161.749 193.473 161.358C192.95 160.966 192.689 160.705 192.428 160.313C192.167 159.922 192.037 159.53 191.775 158.877C191.645 158.355 191.514 157.702 191.514 157.05C191.514 155.091 192.298 153.394 193.734 152.219C195.17 151.044 197.128 150.522 199.608 150.522C202.089 150.522 203.916 151.175 205.353 152.35C206.789 153.655 207.441 155.222 207.441 157.441H204.569C204.569 156.136 204.047 155.222 203.133 154.439C202.219 153.655 201.044 153.394 199.608 153.394C198.172 153.394 196.997 153.655 195.953 154.308C195.039 154.961 194.517 155.875 194.517 156.919C194.517 157.963 194.517 157.572 194.648 157.963C194.648 158.225 194.909 158.486 195.039 158.747C195.17 159.008 195.431 159.138 195.822 159.399C196.084 159.661 196.475 159.791 196.736 159.922C196.997 159.922 197.389 160.183 197.781 160.313C198.303 160.444 198.695 160.574 198.956 160.574C199.217 160.574 199.608 160.705 200.261 160.836C200.783 160.966 201.175 161.097 201.567 161.097C201.828 161.097 202.219 161.227 202.742 161.488C203.264 161.619 203.655 161.749 203.916 161.88C204.178 161.88 204.569 162.141 204.961 162.402C205.352 162.663 205.744 162.794 206.005 163.055C206.266 163.316 206.527 163.577 206.789 163.838C207.05 164.099 207.311 164.491 207.441 164.883C207.572 165.274 207.702 165.666 207.833 166.188C207.833 166.71 207.963 167.102 207.963 167.624C207.963 169.843 207.18 171.54 205.614 172.715C204.047 173.89 202.089 174.543 199.608 174.543Z" fill="#0D212E"/>
<path d="M219.843 171.54H221.802V174.151H219.452C217.494 174.151 215.927 173.629 214.883 172.454C213.708 171.279 213.185 169.843 213.185 167.754V158.616H210.052V158.094L215.666 152.219H216.057V156.005H221.671V158.616H216.057V167.754C216.057 168.538 216.188 169.321 216.449 169.843C216.71 170.365 217.232 170.888 217.755 171.149C218.277 171.41 219.06 171.54 219.843 171.54Z" fill="#0D212E"/>
<path d="M233.812 156.005H235.379V158.747H233.551C231.984 158.747 230.679 159.269 229.765 160.183C228.851 161.227 228.46 162.533 228.46 164.36V174.152H225.588V156.005H227.546L228.068 158.747C229.373 156.789 231.332 155.875 233.812 155.875" fill="#0D212E"/>
<path d="M245.692 158.355C244.648 158.355 243.603 158.616 242.82 159.008C241.906 159.399 241.253 160.052 240.601 160.835C240.078 161.619 239.687 162.533 239.426 163.577H251.958C251.697 162.533 251.306 161.619 250.783 160.835C250.261 160.052 249.478 159.399 248.564 159.008C247.65 158.616 246.736 158.355 245.692 158.355ZM254.961 165.144C254.961 165.405 254.961 165.796 254.961 166.188H239.556C239.817 167.885 240.47 169.191 241.645 170.235C242.82 171.279 244.256 171.802 245.953 171.802C247.65 171.802 248.303 171.54 249.347 171.018C250.261 170.496 251.044 169.713 251.697 168.668H254.7C253.916 170.496 252.742 172.063 251.306 173.107C249.739 174.151 248.042 174.674 246.084 174.674C244.125 174.674 241.253 173.76 239.556 171.932C237.728 170.104 236.945 167.885 236.945 165.144C236.945 162.402 237.859 160.183 239.556 158.355C241.384 156.527 243.473 155.614 246.084 155.614C248.695 155.614 251.044 156.527 252.742 158.355C254.439 160.183 255.353 162.402 255.353 165.144" fill="#0D212E"/>
<path d="M262.533 169.974C263.838 171.279 265.405 171.932 267.363 171.932C269.321 171.932 270.888 171.279 272.063 169.974C273.238 168.668 273.89 167.102 273.89 165.144C273.89 163.185 273.238 161.619 272.063 160.313C270.888 159.008 269.191 158.355 267.363 158.355C265.535 158.355 263.838 159.008 262.533 160.313C261.227 161.619 260.574 163.185 260.574 165.144C260.574 167.102 261.227 168.668 262.533 169.974ZM274.543 156.136H276.762V174.282H274.412L274.151 171.54C273.238 172.585 272.324 173.368 271.018 173.89C269.843 174.412 268.407 174.674 266.971 174.674C264.36 174.674 262.141 173.76 260.313 171.932C258.486 170.104 257.572 167.885 257.572 165.144C257.572 162.402 258.486 160.183 260.313 158.355C262.141 156.527 264.36 155.614 266.971 155.614C269.582 155.614 269.843 155.875 271.018 156.397C272.193 156.919 273.238 157.702 274.151 158.747L274.543 156.005V156.136Z" fill="#0D212E"/>
<path d="M302.611 155.744C303.916 155.744 304.961 156.005 306.005 156.658C306.919 157.311 307.702 158.094 308.225 159.138C308.747 160.183 309.008 161.358 309.008 162.663V174.282H306.136V163.577C306.136 162.533 306.005 161.619 305.614 160.835C305.352 160.052 304.83 159.399 304.178 159.008C303.525 158.616 302.872 158.355 301.958 158.355C300.653 158.355 299.478 158.877 298.564 160.052C297.65 161.227 297.128 162.533 297.128 164.23V174.282H294.386V163.577C294.386 162.01 293.995 160.705 293.342 159.791C292.559 158.877 291.645 158.355 290.339 158.355C289.034 158.355 289.034 158.486 288.512 158.747C287.859 159.008 287.467 159.399 286.945 159.922C286.554 160.444 286.162 161.097 285.901 161.749C285.64 162.533 285.509 163.316 285.509 164.099V174.151H282.637V156.005H284.726L285.248 158.486C285.64 158.094 286.031 157.572 286.423 157.311C286.815 156.919 287.337 156.658 287.859 156.397C288.381 156.136 288.903 156.005 289.426 155.875C289.948 155.744 290.601 155.614 291.123 155.614C292.428 155.614 293.473 155.875 294.517 156.527C295.431 157.18 296.214 157.963 296.736 159.008C297.128 158.355 297.781 157.702 298.433 157.18C299.086 156.658 299.739 156.266 300.522 156.005C301.305 155.744 302.089 155.614 302.872 155.614" fill="#0D212E"/>
<path d="M317.624 149.739H314.752V174.282H317.624V149.739Z" fill="#0D212E"/>
<path d="M323.368 156.136H326.24V174.282H323.368V156.136ZM323.238 149.739H326.371V153.002H323.238V149.739Z" fill="#0D212E"/>
<path d="M340.992 155.744C343.081 155.744 344.778 156.397 346.084 157.833C347.389 159.269 348.042 161.097 348.042 163.316V174.151H345.17V163.969C345.17 162.794 345.039 161.749 344.648 160.836C344.256 159.922 343.734 159.399 342.95 158.877C342.167 158.486 341.384 158.225 340.339 158.225C338.773 158.225 337.467 158.747 336.423 159.922C335.379 161.097 334.856 162.533 334.856 164.23V174.151H331.984V156.005H333.943L334.465 158.877C334.856 158.225 335.509 157.572 336.162 157.18C336.815 156.658 337.598 156.266 338.381 156.136C339.165 155.875 340.078 155.744 340.992 155.744Z" fill="#0D212E"/>
<path d="M361.227 158.486C360.183 158.486 359.138 158.747 358.355 159.138C357.441 159.53 356.788 160.183 356.136 160.966C355.614 161.749 355.222 162.663 354.961 163.708H367.493C367.232 162.663 366.841 161.749 366.319 160.966C365.796 160.183 365.013 159.53 364.099 159.138C363.185 158.747 362.272 158.486 361.227 158.486ZM370.366 165.274C370.366 165.535 370.366 165.927 370.366 166.319H354.961C355.222 168.016 355.875 169.321 357.05 170.366C358.225 171.41 359.661 171.932 361.358 171.932C363.055 171.932 363.708 171.671 364.752 171.149C365.666 170.627 366.449 169.843 367.102 168.799H370.104C369.321 170.627 368.146 172.193 366.71 173.238C365.144 174.282 363.446 174.804 361.488 174.804C359.53 174.804 356.658 173.89 354.961 172.063C353.133 170.235 352.35 168.016 352.35 165.274C352.35 162.533 353.264 160.313 354.961 158.486C356.788 156.658 358.877 155.744 361.488 155.744C364.099 155.744 366.449 156.658 368.146 158.486C369.843 160.313 370.757 162.533 370.757 165.274" fill="#0D212E"/>
<path d="M408.225 174.543C405.614 174.543 403.525 173.89 401.958 172.454C400.392 171.149 399.608 169.321 399.608 166.971H402.611C402.611 168.407 403.133 169.582 404.178 170.366C405.222 171.149 406.527 171.671 408.225 171.671C409.922 171.671 410.052 171.54 410.836 171.149C411.619 170.888 412.272 170.366 412.794 169.713C413.316 169.06 413.577 168.407 413.577 167.624C413.577 166.841 413.577 166.841 413.447 166.58C413.447 166.319 413.185 165.927 413.055 165.796C412.924 165.535 412.663 165.405 412.272 165.144C411.88 164.883 411.619 164.752 411.358 164.621C411.097 164.621 410.705 164.36 410.183 164.23C409.661 164.099 409.269 163.969 409.008 163.838C408.747 163.838 408.355 163.708 407.702 163.577C407.05 163.446 406.527 163.316 406.136 163.185C405.744 163.185 405.222 162.924 404.7 162.794C404.047 162.533 403.525 162.402 403.264 162.141C402.872 162.01 402.48 161.749 402.089 161.358C401.567 160.966 401.306 160.705 401.044 160.313C400.783 159.922 400.653 159.53 400.392 158.877C400.261 158.355 400.131 157.702 400.131 157.05C400.131 155.091 400.914 153.394 402.35 152.219C403.786 151.044 405.744 150.522 408.225 150.522C410.705 150.522 412.533 151.175 413.969 152.35C415.405 153.655 416.057 155.222 416.057 157.441H413.185C413.185 156.136 412.663 155.222 411.749 154.439C410.836 153.655 409.661 153.394 408.225 153.394C406.789 153.394 405.614 153.655 404.569 154.308C403.655 154.961 403.133 155.875 403.133 156.919C403.133 157.963 403.133 157.572 403.264 157.963C403.264 158.225 403.525 158.486 403.655 158.747C403.786 159.008 404.047 159.138 404.439 159.399C404.7 159.661 405.091 159.791 405.353 159.922C405.614 159.922 406.005 160.183 406.397 160.313C406.919 160.444 407.311 160.574 407.572 160.574C407.833 160.574 408.225 160.705 408.877 160.836C409.4 160.966 409.791 161.097 410.183 161.097C410.444 161.097 410.836 161.227 411.358 161.488C411.88 161.619 412.272 161.749 412.533 161.88C412.794 161.88 413.185 162.141 413.577 162.402C413.969 162.663 414.36 162.794 414.621 163.055C414.883 163.316 415.144 163.577 415.405 163.838C415.666 164.099 415.927 164.491 416.057 164.883C416.188 165.274 416.319 165.666 416.449 166.188C416.449 166.71 416.58 167.102 416.58 167.624C416.58 169.843 415.796 171.54 414.23 172.715C412.663 173.89 410.705 174.543 408.225 174.543Z" fill="#0D212E"/>
<path d="M428.721 158.355C427.676 158.355 426.632 158.616 425.849 159.008C424.935 159.399 424.282 160.052 423.629 160.835C423.107 161.619 422.715 162.533 422.454 163.577H434.987C434.726 162.533 434.334 161.619 433.812 160.835C433.29 160.052 432.507 159.399 431.593 159.008C430.679 158.616 429.765 158.355 428.721 158.355ZM437.859 165.144C437.859 165.405 437.859 165.796 437.859 166.188H422.454C422.715 167.885 423.368 169.191 424.543 170.235C425.718 171.279 427.154 171.802 428.851 171.802C430.548 171.802 431.201 171.54 432.245 171.018C433.159 170.496 433.943 169.713 434.595 168.668H437.598C436.815 170.496 435.64 172.063 434.204 173.107C432.637 174.151 430.94 174.674 428.982 174.674C427.024 174.674 424.151 173.76 422.454 171.932C420.627 170.104 419.843 167.885 419.843 165.144C419.843 162.402 420.757 160.183 422.454 158.355C424.282 156.527 426.371 155.614 428.982 155.614C431.593 155.614 433.943 156.527 435.64 158.355C437.337 160.183 438.251 162.402 438.251 165.144" fill="#0D212E"/>
<path d="M450.392 156.005H451.958V158.747H450.131C448.564 158.747 447.258 159.269 446.345 160.183C445.431 161.227 445.039 162.533 445.039 164.36V174.152H442.167V156.005H444.125L444.648 158.747C445.953 156.789 447.911 155.875 450.392 155.875" fill="#0D212E"/>
<path d="M467.885 156.136H470.757L463.055 174.151H460.574L452.741 156.136H455.614L461.749 170.496L467.885 156.136Z" fill="#0D212E"/>
<path d="M474.282 156.136H477.154V174.282H474.282V156.136ZM474.151 149.739H477.285V153.002H474.151V149.739Z" fill="#0D212E"/>
<path d="M490.731 174.543C488.903 174.543 487.337 174.151 485.901 173.368C484.465 172.585 483.29 171.41 482.507 169.974C481.723 168.538 481.332 166.971 481.332 165.144C481.332 162.402 482.245 160.183 484.073 158.355C485.901 156.527 488.12 155.614 490.731 155.614C493.342 155.614 494.778 156.266 496.345 157.441C497.911 158.616 498.956 160.183 499.608 162.141H496.736C496.214 160.966 495.431 160.052 494.386 159.399C493.342 158.747 492.167 158.355 490.862 158.355C489.556 158.355 487.467 159.008 486.162 160.313C484.987 161.619 484.334 163.185 484.334 165.144C484.334 167.102 484.595 167.493 485.118 168.538C485.64 169.582 486.423 170.365 487.467 170.888C488.512 171.54 489.556 171.802 490.862 171.802C492.167 171.802 493.342 171.41 494.386 170.757C495.431 170.104 496.214 169.191 496.736 167.885H499.608C499.086 169.843 497.911 171.54 496.345 172.715C494.778 173.89 492.95 174.543 490.731 174.543Z" fill="#0D212E"/>
<path d="M511.358 158.355C510.313 158.355 509.269 158.616 508.486 159.008C507.572 159.399 506.919 160.052 506.266 160.835C505.744 161.619 505.353 162.533 505.091 163.577H517.624C517.363 162.533 516.971 161.619 516.449 160.835C515.927 160.052 515.144 159.399 514.23 159.008C513.316 158.616 512.402 158.355 511.358 158.355ZM520.496 165.144C520.496 165.405 520.496 165.796 520.496 166.188H505.091C505.353 167.885 506.005 169.191 507.18 170.235C508.355 171.279 509.791 171.802 511.488 171.802C513.185 171.802 513.838 171.54 514.883 171.018C515.796 170.496 516.58 169.713 517.232 168.668H520.235C519.452 170.496 518.277 172.063 516.841 173.107C515.274 174.151 513.577 174.674 511.619 174.674C509.661 174.674 506.789 173.76 505.091 171.932C503.264 170.104 502.48 167.885 502.48 165.144C502.48 162.402 503.394 160.183 505.091 158.355C506.919 156.527 509.008 155.614 511.619 155.614C514.23 155.614 516.58 156.527 518.277 158.355C519.974 160.183 520.888 162.402 520.888 165.144" fill="#0D212E"/>
<path d="M387.337 168.538C384.987 168.538 383.159 166.71 383.159 164.36C383.159 162.01 384.987 160.183 387.337 160.183C389.687 160.183 391.514 162.01 391.514 164.36C391.514 166.71 389.687 168.538 387.337 168.538Z" fill="#4DBB7C"/>
<path d="M176.762 168.538C174.413 168.538 172.585 166.71 172.585 164.36C172.585 162.01 174.413 160.183 176.762 160.183C179.112 160.183 180.94 162.01 180.94 164.36C180.94 166.71 179.112 168.538 176.762 168.538Z" fill="#4DBB7C"/>
</svg>
