<svg width="1000" height="186" viewBox="0 0 1000 186" fill="none" xmlns="http://www.w3.org/2000/svg">
<path d="M483.706 33.95V165.506C483.706 166.314 483.104 166.921 482.302 166.921H457.335C450.416 166.921 443.798 163.99 439.186 158.736L361.075 71.4364V165.607C361.075 166.314 360.473 166.921 359.771 166.921H329.089C328.387 166.921 327.785 166.314 327.785 165.607V34.1521C327.785 33.3438 328.387 32.7375 329.189 32.7375H361.576C368.495 32.7375 375.013 35.6677 379.725 40.8208L450.316 119.532V33.95C450.316 33.2427 450.917 32.6365 451.619 32.6365H482.403C483.104 32.6365 483.706 33.2427 483.706 33.95Z" fill="#09202E"/>
<path d="M606.538 167.022H500.05C499.448 167.022 498.947 166.516 498.947 165.91V138.326C498.947 137.72 499.448 137.214 500.05 137.214H611.15C616.164 137.214 620.275 133.072 620.275 128.02V123.978C620.275 118.926 616.164 114.783 611.15 114.783H539.156C525.318 114.783 514.89 110.944 507.671 103.366C500.551 95.7874 496.942 85.8853 496.942 73.7604C496.942 61.6354 500.551 51.6323 507.671 44.0542C514.79 36.4761 525.318 32.6365 539.156 32.6365H680.136C680.838 32.6365 681.239 33.3438 680.938 33.95L665.998 61.3323C665.697 61.9385 664.995 62.3427 664.294 62.3427H534.543C529.53 62.3427 525.419 66.4854 525.419 71.5375V75.6802C525.419 80.7322 529.53 84.8749 534.543 84.8749H575.053C575.053 84.7739 606.538 84.7739 606.538 84.7739C620.375 84.7739 630.903 88.6135 638.023 96.1916C645.242 103.871 648.752 113.672 648.752 125.797C648.752 137.922 645.142 147.824 638.023 155.402C630.803 162.98 620.375 166.82 606.538 166.82" fill="#09202E"/>
<path d="M60.363 167.022H24.7669C23.8644 167.022 23.3631 166.112 23.7642 165.304L86.8345 49.5104C92.4496 39.2042 103.279 32.7375 114.91 32.7375C126.542 32.7375 129.65 35.3646 135.366 40.1136C137.772 42.1344 139.777 44.5594 141.482 47.0854L181.59 108.721C183.295 110.843 186.403 110.843 188.108 108.721L247.869 46.4792C248.872 45.4688 249.774 44.3573 250.677 43.3469C256.894 36.5771 265.617 32.7375 274.842 32.7375H306.127C307.029 32.7375 307.731 33.4448 307.731 34.3542V165.708C307.731 166.516 307.129 167.123 306.327 167.123H275.544C274.742 167.123 274.14 166.516 274.14 165.708V70.325C274.14 69.1125 272.636 68.5062 271.834 69.5167L213.978 128.222C213.176 129.03 212.474 129.838 211.672 130.748C198.837 144.995 177.479 146.51 162.84 135.295C159.731 132.87 157.124 129.939 155.019 126.605L117.417 69.4156C116.414 68.2031 114.409 68.4052 113.707 69.8198L62.3684 166.112C61.9673 166.82 61.2654 167.325 60.363 167.325" fill="#09202E"/>
<path d="M708.212 70.7292C697.784 70.7292 689.361 62.2417 689.361 51.7334C689.361 41.225 697.784 32.7375 708.212 32.7375C718.64 32.7375 727.063 41.225 727.063 51.7334C727.063 62.2417 718.64 70.7292 708.212 70.7292Z" fill="#E00700"/>
<path d="M771.282 62.9489H787.526V71.1333H762.559V30.3125H786.824V38.4969H771.282V46.4791H785.32V54.5625H771.282V62.9489Z" fill="#E00700"/>
<path d="M812.594 50.6218H793.643V58.9072H812.594V50.6218Z" fill="#E00700"/>
<path d="M844.58 30.3125V38.4969H833.35V71.1333H824.526V38.4969H813.296V30.3125H844.58Z" fill="#E00700"/>
<path d="M854.607 61.5344C856.212 63.151 858.217 63.9594 860.724 63.9594C863.231 63.9594 865.236 63.151 866.84 61.5344C868.445 59.9177 869.247 57.7958 869.247 55.3709C869.247 52.9459 868.445 50.824 866.84 49.2073C865.236 47.5907 863.231 46.7823 860.724 46.7823C858.217 46.7823 857.616 47.1865 856.312 47.8938C855.009 48.7021 854.006 49.7125 853.304 51.0261C852.602 52.3396 852.201 53.7542 852.201 55.4719C852.201 57.9979 853.003 60.0188 854.607 61.6354M871.152 39.6084H877.469V71.1333H870.851L870.149 68.3042C867.242 70.8302 863.933 72.0427 860.022 72.0427C856.112 72.0427 851.399 70.426 848.29 67.2937C845.182 64.1615 843.578 60.1198 843.578 55.3709C843.578 50.6219 845.182 46.6813 848.29 43.549C851.399 40.4167 855.309 38.8 860.022 38.8C864.735 38.8 867.442 40.1136 870.25 42.6396L871.152 39.6084Z" fill="#E00700"/>
<path d="M913.065 71.1333H903.539L897.323 60.7261L890.905 71.1333H881.58L892.309 54.9667L882.282 39.6084H891.908L897.323 48.7021L903.138 39.6084H912.464L902.336 54.5625L913.065 71.1333Z" fill="#E00700"/>
<path d="M786.724 95.3833H771.282V104.376H785.22V112.459H771.282V128.121H762.559V87.199H786.724V95.3833Z" fill="#E00700"/>
<path d="M792.74 96.4946H801.163V128.02H792.74V96.4946ZM792.74 84.3696H801.163V92.3519H792.74V84.3696Z" fill="#E00700"/>
<path d="M817.708 85.0769H809.285V128.02H817.708V85.0769Z" fill="#E00700"/>
<path d="M825.93 96.4946H834.353V128.02H825.93V96.4946ZM825.93 84.3696H834.353V92.3519H825.93V84.3696Z" fill="#E00700"/>
<path d="M860.323 95.7874C863.832 95.7874 866.74 96.9998 868.746 99.4248C870.851 101.85 871.854 104.982 871.854 109.024V128.121H863.431V110.337C863.431 105.588 861.626 103.264 858.017 103.264C854.407 103.264 855.309 103.568 854.307 104.275C853.204 104.982 852.401 105.891 851.9 107.104C851.298 108.316 851.098 109.832 851.098 111.449V128.02H842.675V96.4946H848.491L850.195 100.435C850.797 99.728 851.399 99.0207 852.201 98.5155C852.903 97.9092 853.805 97.5051 854.708 97.1009C855.61 96.6967 856.513 96.3936 857.515 96.1915C858.518 95.9894 859.521 95.8884 860.624 95.8884" fill="#E00700"/>
<path d="M894.114 119.633C896.42 119.633 898.325 118.825 899.829 117.309C901.334 115.794 902.136 113.773 902.136 111.449C902.136 109.125 901.434 107.205 899.93 105.589C898.426 104.073 896.521 103.265 894.114 103.265C891.708 103.265 889.903 104.073 888.399 105.589C886.895 107.104 886.092 109.024 886.092 111.449C886.092 113.874 886.794 115.794 888.298 117.309C889.802 118.825 891.707 119.633 894.014 119.633M904.943 96.4948H910.458V124.382C910.458 127.616 909.856 130.445 908.553 132.87C907.249 135.295 905.445 137.113 903.038 138.427C900.632 139.741 897.824 140.347 894.515 140.347C891.206 140.347 886.694 139.336 883.886 137.215C881.079 135.194 879.274 132.365 878.572 128.727H886.995C887.496 130.041 888.399 131.051 889.802 131.859C891.206 132.668 892.71 132.971 894.415 132.971C896.119 132.971 898.526 132.263 900.03 130.95C901.534 129.636 902.236 127.818 902.236 125.494V124.281C899.629 126.201 896.621 127.11 893.312 127.11C890.003 127.11 887.797 126.403 885.39 124.988C882.984 123.574 881.079 121.755 879.775 119.33C878.472 116.905 877.77 114.278 877.77 111.348C877.77 106.902 879.274 103.164 882.282 100.132C885.29 97.101 889 95.4844 893.312 95.4844C897.624 95.4844 900.832 96.7979 903.74 99.526L905.043 96.3938L904.943 96.4948Z" fill="#E00700"/>
</svg>
