<svg width="1000" height="164" viewBox="0 0 1000 164" fill="none" xmlns="http://www.w3.org/2000/svg">
<path d="M425.472 29.8304V145.424C425.472 146.134 424.943 146.667 424.237 146.667H402.275C396.19 146.667 390.369 144.092 386.311 139.475L317.604 62.7683V145.512C317.604 146.134 317.075 146.667 316.458 146.667H289.469C288.852 146.667 288.322 146.134 288.322 145.512V30.008C288.322 29.2977 288.852 28.7651 289.557 28.7651H318.045C324.131 28.7651 329.864 31.3397 334.009 35.8676L396.102 105.028V29.8304C396.102 29.209 396.631 28.6763 397.248 28.6763H424.325C424.943 28.6763 425.472 29.209 425.472 29.8304Z" fill="#09202E"/>
<path d="M533.516 146.755H439.848C439.319 146.755 438.878 146.311 438.878 145.779V121.541C438.878 121.009 439.319 120.565 439.848 120.565H537.573C541.983 120.565 545.599 116.925 545.599 112.486V108.935C545.599 104.495 541.983 100.855 537.573 100.855H474.246C462.074 100.855 452.902 97.4817 446.551 90.8231C440.289 84.1645 437.114 75.464 437.114 64.8102C437.114 54.1565 440.289 45.3671 446.551 38.7085C452.813 32.05 462.074 28.6763 474.246 28.6763H598.254C598.871 28.6763 599.224 29.2977 598.959 29.8304L585.817 53.8901C585.553 54.4228 584.935 54.778 584.318 54.778H470.189C465.779 54.778 462.163 58.418 462.163 62.8571V66.4971C462.163 70.9361 465.779 74.5762 470.189 74.5762H505.821C505.821 74.4874 533.516 74.4874 533.516 74.4874C545.687 74.4874 554.948 77.8611 561.21 84.5197C567.56 91.267 570.647 99.8788 570.647 110.533C570.647 121.186 567.472 129.887 561.21 136.545C554.86 143.204 545.687 146.578 533.516 146.578" fill="#09202E"/>
<path d="M53.0957 146.755H21.7851C20.9913 146.755 20.5503 145.956 20.9031 145.246L76.3803 43.5028C81.3194 34.4471 90.8449 28.7651 101.076 28.7651C111.307 28.7651 114.041 31.0734 119.069 35.2462C121.185 37.0218 122.949 39.1525 124.449 41.3721L159.728 95.5286C161.228 97.393 163.962 97.393 165.461 95.5286L218.028 40.8394C218.91 39.9516 219.704 38.975 220.497 38.0872C225.966 32.1388 233.639 28.7651 241.753 28.7651H269.271C270.065 28.7651 270.683 29.3866 270.683 30.1856V145.601C270.683 146.311 270.153 146.844 269.448 146.844H242.371C241.665 146.844 241.136 146.311 241.136 145.601V61.7918C241.136 60.7264 239.813 60.1937 239.107 61.0815L188.217 112.663C187.511 113.374 186.894 114.084 186.188 114.883C174.899 127.401 156.112 128.733 143.235 118.878C140.501 116.747 138.208 114.173 136.356 111.243L103.281 60.9927C102.399 59.9273 100.635 60.1049 100.018 61.3478L54.8597 145.956C54.5069 146.578 53.8895 147.022 53.0957 147.022" fill="#09202E"/>
<path d="M622.949 62.1469C613.777 62.1469 606.368 54.6893 606.368 45.456C606.368 36.2228 613.777 28.7651 622.949 28.7651C632.122 28.7651 639.531 36.2228 639.531 45.456C639.531 54.6893 632.122 62.1469 622.949 62.1469Z" fill="#00A4EB"/>
<path d="M678.779 54.8668H693.067V62.1468H671.018V26.1904H692.45V33.3817H678.779V40.4842H691.127V47.4979H678.779V54.8668Z" fill="#00A4EB"/>
<path d="M715.117 44.1243H698.448V51.4043H715.117V44.1243Z" fill="#00A4EB"/>
<path d="M736.814 55.0443C738.049 55.0443 739.107 54.6892 739.901 53.8902C740.695 53.0911 741.048 52.1146 741.048 50.9604C741.048 49.8062 740.695 48.8296 739.901 48.1194C739.107 47.4091 738.137 46.9652 736.814 46.9652H729.935V55.0443H736.814ZM740.43 36.6666C740.43 36.0451 740.342 35.6012 740.166 35.0686C739.989 34.6246 739.725 34.1807 739.372 33.8256C739.019 33.4705 738.578 33.2041 738.137 33.0266C737.608 32.849 737.079 32.7602 736.461 32.7602H730.023V40.3954H736.461C737.696 40.3954 738.666 40.0403 739.372 39.3301C740.077 38.6198 740.43 37.732 740.43 36.5778M743.87 43.1476C745.458 43.9467 746.692 45.1008 747.486 46.6101C748.368 48.1194 748.809 49.8062 748.809 51.7594C748.809 54.6004 747.751 57.0863 745.546 59.1283C743.341 61.1702 740.695 62.1468 737.608 62.1468H722.349V26.1904H737.167C740.254 26.1904 742.812 27.0782 744.84 28.8539C746.869 30.6295 747.927 32.849 747.927 35.4237C747.927 37.9983 747.574 38.4422 746.869 39.774C746.163 41.1057 745.193 42.2598 743.87 43.1476Z" fill="#00A4EB"/>
<path d="M776.592 59.4834C774.211 61.7917 771.124 62.8571 767.155 62.8571C763.186 62.8571 760.099 61.7029 757.717 59.3946C755.336 57.0863 754.189 54.0678 754.189 50.3389V34.2695H761.686V49.4511C761.686 51.4043 762.215 53.0024 763.186 54.0678C764.156 55.2219 765.479 55.7546 767.243 55.7546C769.007 55.7546 770.33 55.2219 771.3 54.0678C772.27 52.9136 772.799 51.4043 772.799 49.4511V34.2695H780.296V50.3389C780.296 54.0678 779.15 57.1751 776.768 59.3946" fill="#00A4EB"/>
<path d="M796.701 62.9458C794.408 62.9458 792.38 62.5019 790.616 61.7029C788.852 60.9039 787.529 59.7497 786.558 58.2404C785.588 56.7312 785.059 55.0443 785.059 53.0911H792.291C792.291 53.8902 792.556 54.6004 792.909 55.2219C793.261 55.7546 793.879 56.1985 794.496 56.4648C795.202 56.7312 795.996 56.8199 796.878 56.8199C797.76 56.8199 798.201 56.7312 798.818 56.5536C799.435 56.376 799.876 56.0209 800.229 55.577C800.582 55.1331 800.758 54.6004 800.758 54.0677C800.758 53.1799 800.317 52.5584 799.435 52.2033C798.553 51.7594 797.23 51.4043 795.466 51.1379C794.32 50.9604 793.438 50.7828 792.644 50.6053C791.939 50.4277 791.057 50.1613 789.998 49.7174C789.028 49.2735 788.234 48.8296 787.617 48.2082C786.999 47.6755 786.47 46.8764 786.029 45.9886C785.588 45.012 785.412 43.9467 785.412 42.6149C785.412 40.0403 786.47 37.9095 788.499 36.2227C790.527 34.5358 793.261 33.7368 796.525 33.7368C799.788 33.7368 802.522 34.6246 804.551 36.3115C806.58 37.9983 807.55 40.2178 807.55 43.0588H800.494C800.494 40.8393 799.083 39.7739 796.348 39.7739C793.614 39.7739 794.32 40.0403 793.614 40.4842C792.997 40.9281 792.644 41.6383 792.644 42.4374C792.644 43.2364 792.732 43.0588 792.909 43.414C793.085 43.6803 793.35 43.9467 793.614 44.1242C793.879 44.3018 794.232 44.4793 794.849 44.5681C795.378 44.7457 795.819 44.8345 796.26 44.9233C796.613 44.9233 797.23 45.1008 797.936 45.1896C798.553 45.3672 799.083 45.4559 799.347 45.4559C799.612 45.4559 800.053 45.6335 800.758 45.7223C801.376 45.8998 801.905 45.9886 802.17 46.0774C802.522 46.1662 802.963 46.3438 803.493 46.5213C804.022 46.6989 804.463 46.9652 804.727 47.1428C804.992 47.3203 805.345 47.5867 805.786 47.9418C806.227 48.2082 806.58 48.5633 806.756 49.0072C807.021 49.3623 807.197 49.8062 807.462 50.2501C807.726 50.694 807.814 51.2267 807.903 51.7594C807.903 52.3809 807.991 53.0023 807.991 53.6238C807.991 56.4648 806.932 58.7731 804.816 60.46C802.699 62.1468 799.876 63.0346 796.437 63.0346" fill="#00A4EB"/>
<path d="M813.724 34.3583H821.221V62.1469H813.724V34.3583ZM813.724 23.7046H821.221V30.7183H813.724V23.7046Z" fill="#00A4EB"/>
<path d="M844.064 33.7368C847.239 33.7368 849.709 34.8022 851.473 36.9329C853.325 39.0637 854.207 41.9047 854.207 45.3672V62.1468H846.71V46.5213C846.71 42.3486 845.123 40.3066 841.947 40.3066C838.772 40.3066 839.566 40.573 838.684 41.1944C837.714 41.8159 837.008 42.6149 836.567 43.6803C836.038 44.7457 835.862 46.0774 835.862 47.4979V62.058H828.365V34.2695H833.48L834.98 37.732C835.509 37.1105 836.038 36.489 836.744 36.0451C837.449 35.5124 838.155 35.1573 838.949 34.8022C839.742 34.4471 840.536 34.1807 841.418 34.0032C842.3 33.8256 843.182 33.7368 844.152 33.7368" fill="#00A4EB"/>
<path d="M873.611 40.0404C871.935 40.0404 870.524 40.4843 869.377 41.4609C868.231 42.3488 867.437 43.6805 867.084 45.2785H880.402C880.049 44.1244 879.608 43.2366 878.903 42.4375C878.197 41.6385 877.492 41.1058 876.61 40.6619C875.728 40.218 874.669 40.0404 873.611 40.0404ZM887.899 48.2083C887.899 48.9186 887.899 49.6288 887.723 50.4278H866.908C867.172 52.2923 867.966 53.8015 869.113 54.7781C870.259 55.7547 871.759 56.2874 873.611 56.2874C875.463 56.2874 875.992 56.0211 877.051 55.3996C878.109 54.8669 878.903 54.0679 879.432 53.0913H887.282C886.223 56.1098 884.547 58.5069 882.078 60.2826C879.608 62.0582 876.786 62.946 873.611 62.946C870.436 62.946 866.114 61.5255 863.38 58.7733C860.646 55.9323 859.323 52.4698 859.323 48.2971C859.323 44.1244 859.587 45.101 860.028 43.5917C860.469 42.0824 861.175 40.7507 862.057 39.5078C862.939 38.3536 863.909 37.2882 865.144 36.4004C866.29 35.5126 867.613 34.8911 869.113 34.3584C870.612 33.9145 872.111 33.6482 873.787 33.6482C876.521 33.6482 878.991 34.2697 881.196 35.6014C883.401 36.9331 885.077 38.7087 886.223 40.9283C887.37 43.1478 887.987 45.6337 887.987 48.2083" fill="#00A4EB"/>
<path d="M902.981 62.9458C900.688 62.9458 898.659 62.5019 896.895 61.7029C895.131 60.9039 893.808 59.7497 892.838 58.2404C891.868 56.7312 891.339 55.0443 891.339 53.0911H898.571C898.571 53.8902 898.836 54.6004 899.188 55.2219C899.541 55.7546 900.159 56.1985 900.776 56.4648C901.482 56.7312 902.275 56.8199 903.157 56.8199C904.039 56.8199 904.48 56.7312 905.098 56.5536C905.715 56.376 906.156 56.0209 906.509 55.577C906.862 55.1331 907.038 54.6004 907.038 54.0677C907.038 53.1799 906.597 52.5584 905.715 52.2033C904.833 51.7594 903.51 51.4043 901.746 51.1379C900.6 50.9604 899.718 50.7828 898.924 50.6053C898.218 50.4277 897.336 50.1613 896.278 49.7174C895.308 49.2735 894.514 48.8296 893.897 48.2082C893.279 47.6755 892.75 46.8764 892.309 45.9886C891.868 45.012 891.603 43.9467 891.603 42.6149C891.603 40.0403 892.662 37.9095 894.69 36.2227C896.719 34.5358 899.453 33.7368 902.716 33.7368C905.98 33.7368 908.714 34.6246 910.743 36.3115C912.771 37.9983 913.741 40.2178 913.741 43.0588H906.685C906.685 40.8393 905.274 39.7739 902.54 39.7739C899.806 39.7739 900.511 40.0403 899.806 40.4842C899.188 40.9281 898.836 41.6383 898.836 42.4374C898.836 43.2364 898.924 43.0588 899.1 43.414C899.277 43.6803 899.541 43.9467 899.806 44.1242C900.07 44.3018 900.423 44.4793 901.041 44.5681C901.57 44.7457 902.011 44.8345 902.452 44.9233C902.805 44.9233 903.422 45.1008 904.128 45.1896C904.745 45.3672 905.274 45.4559 905.539 45.4559C905.803 45.4559 906.244 45.6335 906.95 45.7223C907.567 45.8998 908.097 45.9886 908.361 46.0774C908.714 46.1662 909.155 46.3438 909.684 46.5213C910.213 46.6989 910.654 46.9652 910.919 47.1428C911.184 47.3203 911.536 47.5867 911.977 47.9418C912.418 48.2082 912.771 48.5633 912.947 49.0072C913.212 49.3623 913.389 49.8062 913.653 50.2501C913.918 50.694 914.094 51.2267 914.094 51.7594C914.094 52.3809 914.182 53.0023 914.182 53.6238C914.182 56.4648 913.124 58.7731 911.007 60.46C908.89 62.1468 906.068 63.0346 902.628 63.0346" fill="#00A4EB"/>
<path d="M929.793 62.9458C927.5 62.9458 925.472 62.5019 923.708 61.7029C921.944 60.9039 920.621 59.7497 919.651 58.2404C918.68 56.7312 918.151 55.0443 918.151 53.0911H925.384C925.384 53.8902 925.648 54.6004 926.001 55.2219C926.354 55.7546 926.971 56.1985 927.588 56.4648C928.294 56.7312 929.088 56.8199 929.97 56.8199C930.852 56.8199 931.293 56.7312 931.91 56.5536C932.528 56.376 932.969 56.0209 933.321 55.577C933.674 55.1331 933.851 54.6004 933.851 54.0677C933.851 53.1799 933.41 52.5584 932.528 52.2033C931.646 51.7594 930.323 51.4043 928.559 51.1379C927.412 50.9604 926.53 50.7828 925.736 50.6053C925.031 50.4277 924.149 50.1613 923.09 49.7174C922.12 49.2735 921.326 48.8296 920.709 48.2082C920.092 47.6755 919.562 46.8764 919.121 45.9886C918.68 45.012 918.416 43.9467 918.416 42.6149C918.416 40.0403 919.474 37.9095 921.503 36.2227C923.531 34.5358 926.266 33.7368 929.529 33.7368C932.792 33.7368 935.526 34.6246 937.555 36.3115C939.584 37.9983 940.554 40.2178 940.554 43.0588H933.41C933.41 40.8393 931.998 39.7739 929.264 39.7739C926.53 39.7739 927.236 40.0403 926.53 40.4842C925.913 40.9281 925.56 41.6383 925.56 42.4374C925.56 43.2364 925.648 43.0588 925.825 43.414C926.001 43.6803 926.266 43.9467 926.53 44.1242C926.795 44.3018 927.148 44.4793 927.765 44.5681C928.294 44.7457 928.735 44.8345 929.176 44.9233C929.529 44.9233 930.146 45.1008 930.852 45.1896C931.469 45.3672 931.998 45.4559 932.263 45.4559C932.528 45.4559 932.969 45.6335 933.674 45.7223C934.292 45.8998 934.821 45.9886 935.085 46.0774C935.438 46.1662 935.879 46.3438 936.408 46.5213C936.938 46.6989 937.379 46.9652 937.643 47.1428C937.908 47.3203 938.261 47.5867 938.702 47.9418C939.143 48.2082 939.495 48.5633 939.672 49.0072C939.936 49.3623 940.113 49.8062 940.377 50.2501C940.642 50.694 940.818 51.2267 940.818 51.7594C940.818 52.3809 940.907 53.0023 940.907 53.6238C940.907 56.4648 939.848 58.7731 937.731 60.46C935.615 62.1468 932.792 63.0346 929.352 63.0346" fill="#00A4EB"/>
<path d="M678.779 83.4545V92.7765H684.953C686.541 92.7765 687.776 92.3326 688.746 91.5336C689.716 90.6457 690.157 89.5804 690.157 88.1599C690.157 86.7394 689.98 86.3842 689.539 85.7628C689.098 85.0525 688.569 84.5198 687.776 84.0759C686.982 83.7208 686.1 83.4545 685.041 83.4545H678.867H678.779ZM690.686 112.22L683.718 99.9678H678.779V112.22H671.018V76.2632H685.482C687.864 76.2632 689.981 76.7959 691.833 77.7725C693.773 78.7491 695.272 80.1696 696.331 82.034C697.389 83.8096 697.918 85.9403 697.918 88.1599C697.918 90.3794 697.301 92.5102 696.154 94.3746C695.008 96.239 693.42 97.6595 691.392 98.5473L699.33 112.131H690.686V112.22Z" fill="#00A4EB"/>
<path d="M716.087 90.1129C714.412 90.1129 713 90.5569 711.854 91.5334C710.707 92.51 709.913 93.753 709.561 95.351H722.879C722.526 94.1969 722.085 93.3091 721.379 92.51C720.762 91.711 719.968 91.1783 719.086 90.7344C718.204 90.2905 717.146 90.1129 716.087 90.1129ZM730.376 98.2808C730.376 98.9911 730.376 99.7013 730.199 100.5H709.384C709.649 102.365 710.443 103.874 711.589 104.851C712.736 105.827 714.235 106.36 716.087 106.36C717.94 106.36 718.469 106.094 719.527 105.472C720.586 104.939 721.379 104.14 721.909 103.164H729.758C728.7 106.182 727.024 108.579 724.555 110.355C722.085 112.131 719.263 113.019 716.087 113.019C712.912 113.019 708.59 111.598 705.856 108.846C703.122 106.005 701.799 102.542 701.799 98.3696C701.799 94.1969 702.064 95.1735 702.505 93.6642C702.946 92.1549 703.651 90.8232 704.533 89.5803C705.415 88.4261 706.386 87.3607 707.62 86.4729C708.767 85.5851 710.09 84.9636 711.589 84.4309C713.089 83.987 714.588 83.7207 716.264 83.7207C718.998 83.7207 721.468 84.3422 723.673 85.6739C725.878 87.0056 727.553 88.7812 728.7 91.0008C729.846 93.2203 730.464 95.7062 730.464 98.2808" fill="#00A4EB"/>
<path d="M748.456 104.851C750.485 104.851 752.161 104.14 753.484 102.809C754.807 101.477 755.512 99.7014 755.512 97.6594C755.512 95.6175 754.895 93.9306 753.572 92.5101C752.249 91.1784 750.573 90.4682 748.456 90.4682C746.34 90.4682 744.752 91.1784 743.429 92.5101C742.106 93.8418 741.4 95.5287 741.4 97.6594C741.4 99.7902 742.018 101.477 743.341 102.809C744.664 104.14 746.34 104.851 748.368 104.851M757.982 84.431H762.833V108.935C762.833 111.776 762.304 114.35 761.157 116.392C760.01 118.523 758.423 120.121 756.306 121.275C754.189 122.429 751.72 122.962 748.809 122.962C745.899 122.962 741.93 122.074 739.46 120.21C736.991 118.434 735.403 115.948 734.786 112.752H742.194C742.635 113.906 743.429 114.794 744.664 115.504C745.899 116.215 747.222 116.481 748.721 116.481C750.22 116.481 752.337 115.86 753.66 114.705C754.983 113.551 755.601 111.953 755.601 109.911V108.846C753.307 110.533 750.661 111.332 747.751 111.332C744.84 111.332 742.9 110.71 740.783 109.467C738.666 108.224 736.991 106.538 735.844 104.496C734.609 102.365 734.08 100.057 734.08 97.4819C734.08 93.5755 735.403 90.2906 738.049 87.6271C740.695 84.9637 743.958 83.5432 747.751 83.5432C751.543 83.5432 754.366 84.6974 756.924 87.0945L758.07 84.3422L757.982 84.431Z" fill="#00A4EB"/>
<path d="M769.977 84.4308H777.474V112.219H769.977V84.4308ZM769.977 73.7771H777.474V80.7908H769.977V73.7771Z" fill="#00A4EB"/>
<path d="M824.66 105.561H828.012V112.22H822.72C819.721 112.22 817.34 111.332 815.576 109.556C813.812 107.78 812.93 105.383 812.93 102.276V90.4682H807.903V88.8701L818.751 77.2397H820.162V84.5198H827.747V90.5569H820.25V101.388C820.25 102.72 820.603 103.785 821.309 104.496C822.014 105.206 823.073 105.561 824.484 105.561M795.731 95.0848C796.613 95.2623 797.319 95.3511 797.76 95.4399C798.201 95.4399 798.818 95.7062 799.7 95.9726C800.582 96.2389 801.199 96.4165 801.729 96.6828C802.17 96.9492 802.699 97.3043 803.404 97.7482C804.022 98.1921 804.551 98.636 804.816 99.1687C805.168 99.7014 805.433 100.323 805.698 101.122C805.962 101.921 806.05 102.72 806.05 103.697C806.05 106.538 804.992 108.846 802.875 110.533C800.758 112.22 797.936 113.107 794.496 113.107C791.057 113.107 788.234 112.22 786.117 110.355C784.001 108.58 782.942 106.182 782.942 103.164H790.175C790.175 104.407 790.616 105.295 791.498 105.916C792.291 106.538 793.438 106.893 794.761 106.893C796.084 106.893 796.789 106.626 797.583 106.182C798.377 105.739 798.73 105.028 798.73 104.14C798.73 103.253 798.642 103.341 798.377 102.986C798.112 102.631 797.76 102.365 797.142 102.098C796.613 101.832 796.084 101.655 795.467 101.566C794.937 101.388 794.232 101.299 793.35 101.122C792.203 100.944 791.321 100.767 790.527 100.589C789.822 100.412 788.94 100.145 787.881 99.7014C786.911 99.2575 786.117 98.8136 785.5 98.1921C784.883 97.6594 784.353 96.8604 783.912 95.9726C783.471 94.996 783.295 93.9306 783.295 92.5989C783.295 90.0242 784.353 87.8935 786.382 86.2066C788.411 84.5198 791.145 83.7208 794.408 83.7208C797.671 83.7208 800.406 84.6086 802.434 86.2954C804.463 87.9823 805.433 90.2018 805.433 93.0428H798.377C798.377 90.8233 796.966 89.7579 794.232 89.7579C791.498 89.7579 792.203 90.0242 791.498 90.4682C790.88 90.9121 790.527 91.6223 790.527 92.4213C790.527 93.2204 790.616 93.0428 790.792 93.3979C790.968 93.6643 791.233 93.9306 791.409 94.1082C791.674 94.2857 792.027 94.4633 792.644 94.5521C793.173 94.7296 793.614 94.8184 794.055 94.9072C794.408 94.9072 795.026 95.0848 795.731 95.1736" fill="#00A4EB"/>
<path d="M847.857 84.3423H850.326V91.4448H847.151C845.034 91.4448 843.535 91.9775 842.653 92.9541C841.771 93.9307 841.33 95.6175 841.33 97.837V112.308H833.833V84.5198H838.596L839.919 87.8935C841.771 85.4964 844.417 84.3423 847.857 84.3423Z" fill="#00A4EB"/>
<path d="M861.792 103.785C863.203 105.206 864.967 105.916 867.172 105.916C869.377 105.916 871.141 105.206 872.552 103.785C873.964 102.365 874.669 100.5 874.669 98.3696C874.669 96.2389 873.964 94.3744 872.552 92.9539C871.141 91.5334 869.377 90.8232 867.172 90.8232C864.967 90.8232 864.438 91.1783 863.291 91.7998C862.145 92.51 861.263 93.3979 860.646 94.552C860.028 95.7062 859.675 96.9491 859.675 98.4584C859.675 100.678 860.381 102.454 861.792 103.874M876.433 84.4309H881.99V112.219H876.08L875.463 109.734C872.905 111.953 869.995 113.019 866.555 113.019C863.115 113.019 858.97 111.598 856.236 108.846C853.501 106.094 852.09 102.542 852.09 98.3696C852.09 94.1969 853.501 90.7344 856.236 87.8934C858.97 85.1412 862.41 83.7207 866.555 83.7207C870.7 83.7207 873.082 84.8749 875.551 87.0944L876.345 84.4309H876.433Z" fill="#00A4EB"/>
<path d="M902.628 105.561H905.98V112.22H900.688C898.659 112.22 896.895 111.864 895.484 111.065C893.985 110.266 892.838 109.112 892.044 107.603C891.25 106.094 890.898 104.318 890.898 102.276V90.4682H885.87V88.8701L896.807 77.2397H898.218V84.5198H905.803V90.5569H898.306V101.388C898.306 102.72 898.659 103.785 899.365 104.496C900.07 105.206 901.129 105.561 902.54 105.561" fill="#00A4EB"/>
<path d="M911.095 84.4308H918.592V112.219H911.095V84.4308ZM911.095 73.7771H918.592V80.7908H911.095V73.7771Z" fill="#00A4EB"/>
<path d="M938.878 105.916C940.995 105.916 942.759 105.206 944.17 103.785C945.493 102.365 946.199 100.5 946.199 98.2809C946.199 96.0614 945.493 94.197 944.17 92.7765C942.847 91.356 941.083 90.6457 938.878 90.6457C936.673 90.6457 934.997 91.356 933.586 92.7765C932.263 94.197 931.557 96.0614 931.557 98.2809C931.557 100.5 931.734 100.412 932.087 101.388C932.439 102.365 932.969 103.164 933.586 103.785C934.203 104.407 934.997 104.94 935.879 105.295C936.761 105.65 937.82 105.827 938.878 105.827M938.878 113.019C936.056 113.019 933.498 112.397 931.205 111.154C928.912 109.911 927.147 108.136 925.824 105.916C924.59 103.697 923.884 101.211 923.884 98.4585C923.884 94.2858 925.295 90.7345 928.118 87.9823C930.94 85.2301 934.468 83.8096 938.79 83.8096C943.112 83.8096 946.551 85.2301 949.374 87.9823C952.196 90.7345 953.607 94.2858 953.607 98.4585C953.607 102.631 952.196 106.094 949.374 108.935C946.551 111.687 943.023 113.107 938.79 113.107" fill="#00A4EB"/>
<path d="M974.775 83.8096C977.95 83.8096 980.42 84.8749 982.184 87.0057C984.036 89.1364 984.918 91.9774 984.918 95.4399V112.22H977.421V96.5941C977.421 92.4214 975.833 90.3794 972.658 90.3794C969.483 90.3794 970.277 90.6457 969.395 91.2672C968.425 91.8887 967.719 92.6877 967.278 93.7531C966.749 94.8184 966.572 96.1502 966.572 97.5707V112.131H959.076V84.3423H964.191L965.69 87.8047C966.22 87.1833 966.749 86.5618 967.454 86.1179C968.16 85.5852 968.866 85.2301 969.659 84.8749C970.453 84.5198 971.247 84.2535 972.129 84.0759C973.011 83.8983 973.893 83.8096 974.863 83.8096" fill="#00A4EB"/>
</svg>
