<svg width="1000" height="184" viewBox="0 0 1000 184" fill="none" xmlns="http://www.w3.org/2000/svg">
<path d="M483.706 33.6064V163.831C483.706 164.631 483.104 165.232 482.302 165.232H457.335C450.416 165.232 443.798 162.331 439.186 157.13L361.075 70.7135V163.931C361.075 164.631 360.473 165.232 359.771 165.232H329.089C328.387 165.232 327.785 164.631 327.785 163.931V33.8064C327.785 33.0063 328.387 32.4062 329.189 32.4062H361.576C368.495 32.4062 375.013 35.3067 379.725 40.4077L450.316 118.323V33.6064C450.316 32.9063 450.917 32.3062 451.619 32.3062H482.403C483.104 32.3062 483.706 32.9063 483.706 33.6064Z" fill="#09202E"/>
<path d="M606.538 165.332H500.05C499.448 165.332 498.947 164.831 498.947 164.231V136.926C498.947 136.326 499.448 135.826 500.05 135.826H611.15C616.164 135.826 620.275 131.725 620.275 126.724V122.723C620.275 117.722 616.164 113.622 611.15 113.622H539.156C525.318 113.622 514.89 109.821 507.671 102.32C500.551 94.8181 496.942 85.0162 496.942 73.0139C496.942 61.0116 500.551 51.1097 507.671 43.6083C514.79 36.1069 525.318 32.3062 539.156 32.3062H680.136C680.838 32.3062 681.239 33.0063 680.938 33.6064L665.998 60.7116C665.697 61.3117 664.995 61.7118 664.294 61.7118H534.543C529.53 61.7118 525.419 65.8126 525.419 70.8135V74.9143C525.419 79.9153 529.53 84.016 534.543 84.016H575.053C575.053 83.916 606.538 83.916 606.538 83.916C620.375 83.916 630.903 87.7167 638.023 95.2182C645.242 102.82 648.752 112.521 648.752 124.524C648.752 136.526 645.142 146.328 638.023 153.829C630.803 161.331 620.375 165.132 606.538 165.132" fill="#09202E"/>
<path d="M60.363 165.331H24.7669C23.8644 165.331 23.3631 164.431 23.7642 163.631L86.8345 49.0092C92.4496 38.8072 103.279 32.406 114.91 32.406C126.542 32.406 129.65 35.0065 135.365 39.7074C137.772 41.7078 139.777 44.1082 141.482 46.6087L181.59 107.62C183.295 109.721 186.403 109.721 188.108 107.62L247.869 46.0086C248.872 45.0084 249.774 43.9082 250.677 42.908C256.894 36.2067 265.617 32.406 274.842 32.406H306.127C307.029 32.406 307.731 33.1061 307.731 34.0063V164.031C307.731 164.831 307.129 165.431 306.327 165.431H275.544C274.742 165.431 274.14 164.831 274.14 164.031V69.6131C274.14 68.4129 272.636 67.8128 271.834 68.813L213.978 126.924C213.176 127.724 212.474 128.524 211.672 129.425C198.837 143.527 177.479 145.028 162.84 133.925C159.731 131.525 157.124 128.624 155.019 125.324L117.417 68.713C116.414 67.5127 114.409 67.7128 113.707 69.113L62.3684 164.431C61.9673 165.131 61.2654 165.632 60.363 165.632" fill="#09202E"/>
<path d="M708.212 70.0132C697.784 70.0132 689.361 61.6116 689.361 51.2096C689.361 40.8076 697.784 32.406 708.212 32.406C718.64 32.406 727.063 40.8076 727.063 51.2096C727.063 61.6116 718.64 70.0132 708.212 70.0132Z" fill="#FF9527"/>
<path d="M771.283 62.3118H787.326V70.4133H762.559V30.3057H786.624V38.3072H771.283V46.2087H785.12V54.1102H771.283V62.3118Z" fill="#FF9527"/>
<path d="M812.293 50.3096H793.442V58.4111H812.293V50.3096Z" fill="#FF9527"/>
<path d="M843.979 30.3057V38.4072H832.748V70.4133H824.025V38.4072H812.795V30.3057H843.979Z" fill="#FF9527"/>
<path d="M863.13 39.3074H865.938V47.2089H862.328C859.922 47.2089 858.217 47.809 857.215 48.9092C856.212 50.0094 855.71 51.8098 855.71 54.4103V70.5133H847.288V39.5074H852.702L854.206 43.3081C856.312 40.7076 859.32 39.3074 863.13 39.3074Z" fill="#FF9527"/>
<path d="M878.873 61.0115C880.477 62.6118 882.483 63.412 884.889 63.412C887.296 63.412 889.301 62.6118 890.905 61.0115C892.51 59.4112 893.312 57.4109 893.312 54.9104C893.312 52.4099 892.51 50.4095 890.905 48.8092C889.301 47.2089 887.296 46.4087 884.889 46.4087C882.483 46.4087 881.781 46.8088 880.578 47.509C879.274 48.2091 878.271 49.3093 877.569 50.5095C876.867 51.8098 876.466 53.21 876.466 54.8104C876.466 57.2108 877.269 59.3112 878.873 60.9115M895.317 39.4074H901.534V70.4133H894.916L894.214 67.6128C891.407 70.0133 887.998 71.3135 884.187 71.3135C880.377 71.3135 875.664 69.7132 872.556 66.6126C869.447 63.512 867.943 59.6113 867.943 54.9104C867.943 50.2095 869.447 46.4087 872.556 43.3082C875.664 40.2076 879.475 38.7073 884.187 38.7073C888.9 38.7073 891.507 40.0075 894.415 42.508L895.317 39.5074V39.4074Z" fill="#FF9527"/>
<path d="M918.58 61.0116C920.184 62.6119 922.19 63.4121 924.697 63.4121C927.203 63.4121 929.109 62.6119 930.713 61.0116C932.317 59.4113 933.119 57.3109 933.119 54.9104C933.119 52.51 932.317 50.5096 930.713 48.9093C929.109 47.309 927.103 46.5088 924.697 46.5088C922.29 46.5088 920.285 47.309 918.58 48.9093C916.976 50.5096 916.174 52.51 916.174 55.0105C916.174 57.5109 916.976 59.5113 918.58 61.1116M932.518 28.3053H940.941V70.4134H934.724L933.721 67.8129C930.913 70.1133 927.705 71.3136 923.995 71.3136C920.285 71.3136 918.079 70.6134 915.572 69.2132C913.065 67.8129 911.16 65.8125 909.756 63.312C908.353 60.8116 907.651 58.011 907.651 54.9104C907.651 51.8098 908.353 49.0093 909.756 46.5088C911.16 44.0083 913.065 42.108 915.572 40.6077C918.079 39.2074 920.886 38.5073 923.995 38.5073C927.103 38.5073 930.011 39.3074 932.518 41.0078V28.2053V28.3053Z" fill="#FF9527"/>
<path d="M963 45.7088C961.095 45.7088 959.491 46.2089 958.287 47.2091C957.084 48.2093 956.081 49.7095 955.68 51.5099H970.721C970.32 50.2096 969.818 49.2095 969.016 48.3093C968.314 47.4091 967.412 46.809 966.409 46.3089C965.407 45.8088 964.304 45.6088 963 45.6088M979.043 54.8105C979.043 55.6107 979.043 56.4108 978.843 57.311H955.379C955.68 59.4114 956.583 61.0117 957.886 62.1119C959.19 63.2121 960.894 63.8122 963 63.8122C965.106 63.8122 965.707 63.5122 966.81 62.9121C967.913 62.312 968.816 61.4118 969.518 60.3116H978.341C977.238 63.7122 975.233 66.3127 972.526 68.3131C969.718 70.3135 966.61 71.3137 963 71.3137C959.39 71.3137 954.577 69.7134 951.469 66.6128C948.361 63.5122 946.856 59.6114 946.856 55.0106C946.856 50.4097 947.157 51.4099 947.659 49.7095C948.16 48.0092 948.962 46.5089 949.865 45.2087C950.867 43.9084 951.97 42.7082 953.274 41.708C954.577 40.7078 956.081 40.0077 957.686 39.4076C959.29 38.9075 961.095 38.6074 962.9 38.6074C966.008 38.6074 968.816 39.3076 971.222 40.8078C973.729 42.3081 975.634 44.2085 976.938 46.709C978.241 49.2095 978.943 51.91 978.943 54.8105" fill="#FF9527"/>
</svg>
