<svg width="1000" height="186" viewBox="0 0 1000 186" fill="none" xmlns="http://www.w3.org/2000/svg">
<path d="M472.075 28.4308V157.881C472.075 158.688 471.473 159.293 470.671 159.293H446.104C439.286 159.293 432.768 156.369 428.256 151.328L351.248 65.431V158.083C351.248 158.788 350.647 159.393 349.945 159.393H319.663C318.961 159.393 318.359 158.788 318.359 158.083V28.5316C318.359 27.725 318.961 27.1201 319.763 27.1201H351.649C358.468 27.1201 364.985 30.0438 369.498 35.0847L439.085 112.513V28.4308C439.085 27.725 439.687 27.1201 440.389 27.1201H470.771C471.473 27.1201 472.075 27.725 472.075 28.4308Z" fill="#0C202D"/>
<path d="M593.101 159.293H488.118C487.516 159.293 487.015 158.788 487.015 158.184V131.063C487.015 130.459 487.516 129.954 488.118 129.954H597.714C602.727 129.954 606.738 125.922 606.738 120.881V116.848C606.738 111.807 602.727 107.775 597.714 107.775H526.722C513.085 107.775 502.757 104.044 495.738 96.5837C488.719 89.1232 485.21 79.4447 485.21 67.4473C485.21 55.45 488.719 45.7714 495.738 38.2101C502.757 30.7496 513.085 27.0193 526.722 27.0193H665.697C666.399 27.0193 666.8 27.725 666.499 28.3299L651.86 55.2483C651.559 55.8532 650.857 56.2565 650.155 56.2565H522.21C517.196 56.2565 513.185 60.2892 513.185 65.3301V69.4637C513.185 74.5046 517.196 78.5373 522.21 78.5373H562.118H593.202C606.838 78.5373 617.166 82.2676 624.285 89.8289C631.405 97.3903 634.914 107.069 634.914 118.965C634.914 130.862 631.405 140.54 624.285 148.102C617.166 155.562 606.838 159.293 593.202 159.293" fill="#0C202D"/>
<path d="M54.6475 159.293H19.5528C18.6503 159.293 18.149 158.385 18.5501 157.579L80.7179 43.6543C86.2328 33.4716 96.8615 27.1201 108.393 27.1201C119.924 27.1201 122.932 29.7414 128.547 34.379C130.853 36.2945 132.859 38.7142 134.563 41.2346L174.17 101.826C175.775 103.843 178.883 103.843 180.588 101.826L239.547 40.6297C240.549 39.6215 241.452 38.6134 242.354 37.5044C248.471 30.8504 257.094 27.0193 266.119 27.0193H297.002C297.904 27.0193 298.506 27.725 298.506 28.5316V157.679C298.506 158.486 297.904 159.091 297.102 159.091H266.72C265.918 159.091 265.316 158.486 265.316 157.679V64.0195C265.316 62.8097 263.812 62.2048 263.01 63.213L205.956 120.982C205.154 121.788 204.452 122.595 203.65 123.401C191.016 137.415 169.959 138.927 155.52 127.837C152.411 125.518 149.905 122.494 147.799 119.268L110.699 63.0113C109.696 61.8015 107.791 62.0031 106.989 63.4146L56.4524 158.083C56.0513 158.788 55.3494 159.293 54.5473 159.293" fill="#0C202D"/>
<path d="M693.372 64.5236C683.144 64.5236 674.822 56.1557 674.822 45.8723C674.822 35.5888 683.144 27.2209 693.372 27.2209C703.6 27.2209 711.922 35.5888 711.922 45.8723C711.922 56.1557 703.6 64.5236 693.372 64.5236Z" fill="#4DBA7C"/>
<path d="M790.133 66.54H782.513L779.104 43.856L768.675 66.54H766.871L756.543 43.856L753.133 66.54H745.513L750.928 31.7578H758.448L767.773 53.1312L777.198 31.7578H784.719L790.133 66.54Z" fill="#4DBA7C"/>
<path d="M802.667 58.3737C804.071 59.7851 805.776 60.4908 807.881 60.4908C809.987 60.4908 811.692 59.7851 813.095 58.3737C814.499 56.9622 815.201 55.2483 815.201 53.1311C815.201 51.0139 814.499 49.3 813.095 47.8886C811.692 46.4771 809.987 45.7714 807.881 45.7714C805.776 45.7714 805.274 46.0739 804.171 46.7796C803.068 47.3845 802.166 48.2919 801.564 49.4009C800.963 50.5099 800.662 51.7197 800.662 53.1311C800.662 55.2483 801.364 56.9622 802.667 58.3737ZM816.805 39.7223H822.22V66.5399H816.505L815.903 64.1203C813.496 66.2375 810.589 67.3465 807.28 67.3465C803.971 67.3465 799.96 66.0358 797.253 63.3137C794.645 60.5917 793.242 57.2647 793.242 53.1311C793.242 48.9976 794.545 45.7714 797.253 43.0493C799.86 40.3272 803.269 39.0166 807.28 39.0166C811.29 39.0166 813.597 40.1256 816.003 42.3436L816.805 39.7223Z" fill="#4DBA7C"/>
<path d="M850.396 64.0196C848.09 66.2375 845.082 67.3465 841.271 67.3465C837.461 67.3465 834.453 66.2375 832.147 64.0196C829.841 61.8016 828.738 58.8778 828.738 55.2484V39.7224H835.957V54.341C835.957 56.2566 836.458 57.7688 837.361 58.8778C838.263 59.9868 839.567 60.4909 841.271 60.4909C842.976 60.4909 844.28 59.9868 845.182 58.8778C846.084 57.7688 846.586 56.2566 846.586 54.341V39.7224H853.805V55.2484C853.805 58.8778 852.702 61.8016 850.396 64.0196Z" fill="#4DBA7C"/>
<path d="M874.06 39.6216H876.466V46.4772H873.358C871.353 46.4772 869.849 46.9813 868.946 47.8887C868.044 48.8968 867.643 50.4091 867.643 52.6271V66.6408H860.423V39.8232H865.036L866.339 43.1502C868.144 40.8314 870.751 39.7224 874.06 39.7224" fill="#4DBA7C"/>
<path d="M880.578 39.7224H887.797V66.54H880.578V39.7224ZM880.578 29.439H887.797V36.1938H880.578V29.439Z" fill="#4DBA7C"/>
<path d="M907.751 60.0875H911.06V66.5399H905.946C904.041 66.5399 902.336 66.1366 900.832 65.4309C899.428 64.6244 898.325 63.6162 897.523 62.1039C896.721 60.6925 896.42 58.9785 896.42 56.9622V45.5698H891.607V44.0575L902.236 32.7659H903.539V39.8231H910.859V45.6706H903.64V56.1556C903.64 57.4663 904.041 58.4745 904.743 59.1802C905.445 59.8859 906.447 60.2892 907.751 60.2892" fill="#4DBA7C"/>
<path d="M915.973 39.7224H923.193V66.54H915.973V39.7224ZM915.973 29.439H923.193V36.1938H915.973V29.439Z" fill="#4DBA7C"/>
<path d="M951.469 64.0196C949.163 66.2375 946.155 67.3465 942.344 67.3465C938.534 67.3465 935.526 66.2375 933.22 64.0196C930.913 61.8016 929.81 58.8778 929.81 55.2484V39.7224H937.03V54.341C937.03 56.2566 937.531 57.7688 938.434 58.8778C939.336 59.9868 940.64 60.4909 942.344 60.4909C944.049 60.4909 945.352 59.9868 946.255 58.8778C947.157 57.7688 947.659 56.2566 947.659 54.341V39.7224H954.878V55.2484C954.878 58.8778 953.775 61.8016 951.469 64.0196Z" fill="#4DBA7C"/>
<path d="M970.922 67.3465C968.716 67.3465 966.71 66.9432 965.106 66.1366C963.401 65.3301 962.098 64.2211 961.195 62.7088C960.293 61.2974 959.792 59.5835 959.792 57.6679H966.81C966.81 58.4745 967.011 59.1802 967.412 59.6843C967.813 60.1884 968.315 60.5916 969.016 60.8941C969.718 61.0957 970.42 61.2974 971.323 61.2974C972.225 61.2974 972.626 61.2974 973.228 60.9949C973.829 60.7933 974.23 60.4908 974.632 60.0876C975.033 59.6843 975.133 59.1802 975.133 58.5753C975.133 57.7687 974.732 57.1638 973.829 56.7606C972.927 56.3573 971.724 56.0548 970.019 55.7524C968.916 55.5507 968.014 55.4499 967.312 55.2483C966.61 55.0467 965.808 54.7442 964.805 54.3409C963.802 53.9377 963.1 53.4336 962.499 52.9295C961.897 52.4254 961.396 51.7197 960.995 50.7115C960.594 49.8041 960.393 48.6951 960.393 47.4853C960.393 44.9649 961.396 42.9485 963.401 41.3354C965.407 39.7223 968.014 38.9158 971.222 38.9158C974.431 38.9158 977.038 39.7223 978.943 41.3354C980.949 42.9485 981.851 45.1665 981.851 47.7878H974.932C974.932 45.6706 973.629 44.5616 970.922 44.5616C968.214 44.5616 968.916 44.7632 968.315 45.2673C967.713 45.7714 967.412 46.3763 967.412 47.1828C967.412 47.9894 967.412 47.7878 967.713 48.0902C967.913 48.3927 968.114 48.5943 968.315 48.7959C968.515 48.9976 968.916 49.0984 969.518 49.3C970.019 49.4008 970.52 49.6025 970.821 49.6025C971.222 49.6025 971.724 49.8041 972.426 49.9049C973.027 50.0058 973.529 50.1066 973.729 50.2074C974.03 50.2074 974.431 50.3082 975.033 50.5098C975.634 50.6107 976.136 50.8123 976.436 50.9131C976.737 51.0139 977.138 51.2156 977.74 51.4172C978.241 51.6188 978.743 51.8205 978.943 52.0221C979.244 52.2237 979.545 52.5262 979.946 52.8287C980.347 53.1311 980.648 53.4336 980.949 53.8368C981.149 54.2401 981.45 54.6434 981.651 55.0467C981.851 55.4499 982.052 55.954 982.152 56.5589C982.152 57.1638 982.252 57.7687 982.252 58.3737C982.252 61.0957 981.249 63.3137 979.144 64.9268C977.138 66.5399 974.431 67.3465 971.022 67.3465" fill="#4DBA7C"/>
<path d="M769.578 76.4202H776.898V111.202H770.681L755.039 89.5265V111.202H747.619V76.4202H754.437L769.578 97.6928V76.4202Z" fill="#4DBA7C"/>
<path d="M796.049 89.8289C794.445 89.8289 793.041 90.2322 791.938 91.1395C790.835 92.0469 790.033 93.2567 789.732 94.8698H802.667C802.366 93.7608 801.865 92.8534 801.263 92.1477C800.662 91.442 799.86 90.8371 799.057 90.4338C798.155 90.0305 797.253 89.8289 796.15 89.8289M809.887 97.6927C809.887 98.3984 809.887 99.1041 809.786 99.8099H789.632C789.933 101.625 790.635 103.036 791.738 104.044C792.841 105.052 794.345 105.556 796.15 105.556C797.954 105.556 798.456 105.254 799.459 104.75C800.461 104.246 801.263 103.439 801.765 102.532H809.385C808.383 105.456 806.678 107.774 804.372 109.488C801.965 111.202 799.258 112.11 796.15 112.11C793.041 112.11 788.93 110.799 786.223 108.077C783.616 105.355 782.312 102.028 782.312 97.9951C782.312 93.9624 782.513 94.8698 783.014 93.4583C783.415 92.0469 784.117 90.7362 784.919 89.5264C785.721 88.3166 786.724 87.4093 787.827 86.5019C788.93 85.6953 790.234 84.9896 791.637 84.5863C793.041 84.0823 794.545 83.8806 796.15 83.8806C798.857 83.8806 801.263 84.4855 803.369 85.7962C805.475 87.006 807.079 88.7199 808.282 90.9379C809.385 93.0551 809.987 95.4747 809.987 97.9951" fill="#4DBA7C"/>
<path d="M827.635 104.75H830.944V111.202H825.83C823.925 111.202 822.22 110.799 820.716 110.093C819.312 109.287 818.209 108.279 817.407 106.766C816.605 105.355 816.304 103.641 816.304 101.625V90.2321H811.491V88.7198L822.12 77.4282H823.423V84.4855H830.743V90.3329H823.523V100.818C823.523 102.129 823.925 103.137 824.626 103.843C825.328 104.548 826.331 104.952 827.635 104.952" fill="#4DBA7C"/>
<path d="M866.84 84.3848H874.06L865.336 111.202H859.521L853.404 97.3903L847.488 111.202H841.673L832.849 84.3848H840.269L845.483 100.415L852.401 84.5864H854.507L861.626 100.415L866.84 84.3848Z" fill="#4DBA7C"/>
<path d="M890.103 105.153C892.209 105.153 893.914 104.447 895.217 103.137C896.521 101.725 897.223 100.011 897.223 97.7935C897.223 95.5755 896.521 93.8616 895.217 92.4501C893.914 91.0387 892.209 90.4337 890.103 90.4337C887.998 90.4337 886.293 91.1395 884.989 92.4501C883.686 93.8616 882.984 95.5755 882.984 97.7935C882.984 100.011 883.185 99.8098 883.485 100.818C883.786 101.725 884.288 102.532 884.989 103.137C885.591 103.742 886.393 104.246 887.195 104.649C888.098 105.052 889 105.153 890.103 105.153ZM890.103 112.009C887.396 112.009 884.889 111.404 882.683 110.194C880.477 108.984 878.773 107.27 877.469 105.052C876.266 102.834 875.664 100.516 875.664 97.7935C875.664 93.7607 877.068 90.3329 879.775 87.6108C882.483 84.8888 885.992 83.5781 890.103 83.5781C894.214 83.5781 897.624 84.8888 900.431 87.6108C903.139 90.3329 904.542 93.6599 904.542 97.7935C904.542 101.927 903.139 105.254 900.431 107.875C897.724 110.597 894.214 111.908 890.204 111.908" fill="#4DBA7C"/>
<path d="M923.393 84.2839H925.8V91.1396H922.691C920.686 91.1396 919.182 91.6437 918.279 92.551C917.377 93.5592 916.976 95.0715 916.976 97.2895V111.303H909.756V84.4856H914.369L915.672 87.8126C917.477 85.4938 920.084 84.3848 923.393 84.3848" fill="#4DBA7C"/>
<path d="M954.978 111.202H946.255L937.732 98.3985V111.202H930.512V74.7063H937.732V96.3822L945.753 84.3848H954.076L945.052 97.1887L954.978 111.202Z" fill="#4DBA7C"/>
<path d="M759.15 160.401C755.139 160.401 751.93 159.292 749.423 157.175C746.917 155.058 745.713 152.134 745.713 148.404H753.234C753.234 149.211 753.434 150.017 753.735 150.622C754.036 151.227 754.437 151.832 755.039 152.235C755.54 152.638 756.242 152.941 756.843 153.143C757.545 153.344 758.247 153.445 759.049 153.445C760.553 153.445 761.857 153.042 762.96 152.336C764.063 151.63 764.665 150.622 764.665 149.311C764.665 148.001 764.564 148.303 764.263 147.9C763.963 147.497 763.662 147.194 763.361 146.892C763.06 146.69 762.459 146.388 761.757 146.085C761.055 145.783 760.453 145.581 759.952 145.48C759.45 145.38 758.749 145.178 757.746 144.976C756.944 144.775 756.342 144.674 755.941 144.573C755.54 144.573 754.938 144.271 754.136 144.069C753.334 143.867 752.732 143.666 752.331 143.464C751.93 143.262 751.429 143.061 750.727 142.657C750.025 142.355 749.524 141.952 749.223 141.649C748.822 141.347 748.421 140.944 748.02 140.439C747.619 139.935 747.217 139.431 747.017 138.826C746.816 138.322 746.616 137.617 746.415 136.911C746.215 136.205 746.215 135.399 746.215 134.693C746.215 131.366 747.318 128.845 749.624 127.031C751.83 125.216 754.938 124.309 758.849 124.309C762.759 124.309 765.868 125.317 767.973 127.333C770.179 129.349 771.282 132.072 771.282 135.499H763.862C763.862 134.088 763.361 132.979 762.358 132.273C761.356 131.567 760.152 131.164 758.648 131.164C757.144 131.164 756.142 131.467 755.239 131.971C754.236 132.576 753.735 133.382 753.735 134.39C753.735 135.399 753.835 135.298 754.136 135.701C754.337 136.104 754.637 136.407 755.039 136.608C755.339 136.81 755.841 137.112 756.543 137.314C757.244 137.516 757.846 137.717 758.347 137.818C758.849 137.919 759.551 138.121 760.453 138.322C761.556 138.625 762.258 138.826 762.86 138.927C763.361 139.028 764.163 139.33 765.166 139.633C766.169 139.935 766.971 140.339 767.472 140.641C767.973 140.944 768.675 141.448 769.377 141.952C770.079 142.456 770.681 143.061 771.082 143.766C771.483 144.371 771.784 145.178 772.085 146.085C772.385 146.993 772.486 148.001 772.486 149.009C772.486 151.429 771.884 153.546 770.681 155.26C769.478 156.974 767.873 158.284 765.968 158.99C764.063 159.797 761.857 160.2 759.35 160.2" fill="#4DBA7C"/>
<path d="M789.933 138.221C788.328 138.221 786.925 138.625 785.822 139.532C784.719 140.439 783.917 141.649 783.616 143.262H796.551C796.25 142.153 795.749 141.246 795.147 140.54C794.545 139.835 793.743 139.23 792.941 138.826C792.038 138.423 791.136 138.221 790.033 138.221M803.67 146.186C803.67 146.892 803.67 147.598 803.57 148.303H783.415C783.716 150.118 784.418 151.529 785.521 152.538C786.624 153.546 788.128 154.05 789.933 154.05C791.738 154.05 792.239 153.747 793.242 153.243C794.244 152.739 795.047 151.933 795.548 151.025H803.169C802.166 153.949 800.461 156.268 798.155 157.982C795.749 159.696 793.041 160.603 789.933 160.603C786.824 160.603 782.713 159.292 780.006 156.57C777.399 153.848 776.095 150.521 776.095 146.489C776.095 142.456 776.296 143.363 776.797 141.952C777.198 140.54 777.9 139.23 778.702 138.02C779.505 136.911 780.507 135.903 781.61 134.995C782.713 134.189 784.017 133.483 785.421 133.08C786.824 132.576 788.328 132.374 789.933 132.374C792.64 132.374 795.047 132.979 797.152 134.29C799.258 135.499 800.862 137.213 802.066 139.431C803.169 141.548 803.77 143.968 803.77 146.489" fill="#4DBA7C"/>
<path d="M822.521 132.677H824.927V139.532H821.819C819.814 139.532 818.309 140.036 817.407 140.944C816.505 141.952 816.104 143.464 816.104 145.682V159.696H808.884V132.878H813.496L814.8 136.205C816.605 133.886 819.212 132.777 822.521 132.777" fill="#4DBA7C"/>
<path d="M846.486 132.777H854.006L843.377 159.696H836.659L825.83 132.777H833.551L840.068 150.824L846.486 132.777Z" fill="#4DBA7C"/>
<path d="M857.816 132.777H865.036V159.595H857.816V132.777ZM857.816 122.494H865.036V129.249H857.816V122.494Z" fill="#4DBA7C"/>
<path d="M884.388 160.401C881.781 160.401 879.374 159.796 877.168 158.587C874.962 157.377 873.358 155.663 872.055 153.445C870.851 151.227 870.149 148.807 870.149 146.186C870.149 142.153 871.453 138.826 874.16 136.104C876.868 133.382 880.277 132.072 884.288 132.072C888.298 132.072 890.705 133.08 893.212 135.096C895.718 137.112 897.223 139.734 897.924 143.061H890.705C890.103 141.75 889.201 140.742 888.098 140.036C886.995 139.33 885.691 138.927 884.187 138.927C882.683 138.927 880.578 139.633 879.274 141.044C877.971 142.456 877.369 144.17 877.369 146.287C877.369 148.404 878.071 150.118 879.374 151.529C880.678 152.941 882.282 153.647 884.187 153.647C886.092 153.647 886.895 153.243 887.998 152.437C889.101 151.63 890.003 150.521 890.605 149.11H897.824C897.122 152.538 895.618 155.26 893.111 157.377C890.605 159.494 887.597 160.502 884.087 160.502" fill="#4DBA7C"/>
<path d="M914.97 138.221C913.366 138.221 911.962 138.625 910.859 139.532C909.756 140.439 908.954 141.649 908.653 143.262H921.588C921.288 142.153 920.786 141.246 920.185 140.54C919.583 139.835 918.781 139.23 917.979 138.826C917.076 138.423 916.174 138.221 915.071 138.221M928.808 146.186C928.808 146.892 928.808 147.598 928.708 148.303H908.553C908.854 150.118 909.556 151.529 910.659 152.538C911.762 153.546 913.266 154.05 915.071 154.05C916.876 154.05 917.377 153.747 918.38 153.243C919.382 152.739 920.185 151.933 920.686 151.025H928.306C927.304 153.949 925.599 156.268 923.293 157.982C920.886 159.696 918.179 160.603 915.071 160.603C911.962 160.603 907.851 159.292 905.144 156.57C902.537 153.848 901.233 150.521 901.233 146.489C901.233 142.456 901.434 143.363 901.935 141.952C902.336 140.54 903.038 139.23 903.84 138.02C904.643 136.911 905.645 135.903 906.748 134.995C907.851 134.189 909.155 133.483 910.559 133.08C911.962 132.576 913.466 132.374 915.071 132.374C917.778 132.374 920.185 132.979 922.29 134.29C924.396 135.499 926 137.213 927.204 139.431C928.307 141.548 928.908 143.968 928.908 146.489" fill="#4DBA7C"/>
<path d="M943.447 160.402C941.241 160.402 939.236 159.998 937.632 159.192C935.927 158.385 934.624 157.276 933.721 155.764C932.819 154.353 932.317 152.639 932.317 150.723H939.336C939.336 151.53 939.537 152.235 939.938 152.739C940.339 153.244 940.84 153.647 941.542 153.949C942.244 154.151 942.946 154.353 943.848 154.353C944.751 154.353 945.152 154.353 945.754 154.05C946.355 153.848 946.756 153.546 947.157 153.143C947.558 152.739 947.659 152.235 947.659 151.63C947.659 150.824 947.258 150.219 946.355 149.816C945.453 149.412 944.249 149.11 942.545 148.808C941.442 148.606 940.539 148.505 939.838 148.303C939.136 148.102 938.334 147.799 937.331 147.396C936.328 146.993 935.626 146.489 935.025 145.985C934.423 145.481 933.922 144.775 933.521 143.767C933.119 142.859 932.919 141.75 932.919 140.54C932.919 138.02 933.922 136.004 935.927 134.391C937.932 132.778 940.539 131.971 943.748 131.971C946.957 131.971 949.564 132.778 951.469 134.391C953.474 136.004 954.377 138.222 954.377 140.843H947.458C947.458 138.726 946.155 137.617 943.447 137.617C940.74 137.617 941.442 137.818 940.84 138.322C940.239 138.827 939.938 139.431 939.938 140.238C939.938 141.045 939.938 140.843 940.239 141.145C940.439 141.448 940.64 141.649 940.84 141.851C941.041 142.053 941.442 142.154 942.044 142.355C942.545 142.456 943.046 142.658 943.347 142.658C943.748 142.658 944.25 142.859 944.951 142.96C945.553 143.061 946.054 143.162 946.255 143.263C946.556 143.263 946.957 143.363 947.558 143.565C948.16 143.666 948.661 143.867 948.962 143.968C949.263 144.069 949.664 144.271 950.266 144.472C950.767 144.674 951.268 144.876 951.469 145.077C951.77 145.279 952.071 145.581 952.472 145.884C952.873 146.186 953.174 146.489 953.474 146.892C953.675 147.295 953.976 147.699 954.176 148.102C954.377 148.505 954.577 149.009 954.678 149.614C954.678 150.219 954.778 150.824 954.778 151.429C954.778 154.151 953.775 156.369 951.67 157.982C949.664 159.595 946.957 160.402 943.548 160.402" fill="#4DBA7C"/>
</svg>
