<svg width="600" height="155" viewBox="0 0 600 155" fill="none" xmlns="http://www.w3.org/2000/svg">
<path d="M387.089 25.3164V126.456C387.089 127.089 386.582 127.595 385.949 127.595H366.582C361.266 127.595 356.076 125.316 352.532 121.392L292.025 54.1771V126.582C292.025 127.089 291.519 127.595 291.013 127.595H267.215C266.709 127.595 266.203 127.089 266.203 126.582V25.443C266.203 24.81 266.709 24.3037 267.342 24.3037H292.405C297.722 24.3037 302.912 26.5822 306.456 30.5062L361.139 91.0126V25.3164C361.139 24.81 361.646 24.3037 362.152 24.3037H386.076C386.582 24.3037 387.089 24.81 387.089 25.3164Z" fill="#4CBB7C"/>
<path d="M482.279 127.595H399.747C399.241 127.595 398.861 127.215 398.861 126.709V105.57C398.861 105.063 399.241 104.683 399.747 104.683H485.823C489.747 104.683 492.912 101.519 492.912 97.5948V94.4303C492.912 90.5062 489.747 87.3417 485.823 87.3417H430C419.241 87.3417 411.139 84.4303 405.57 78.6075C400 72.7847 397.215 65.1898 397.215 55.8227C397.215 46.4556 400 38.8607 405.57 33.0379C411.139 27.2151 419.241 24.3037 430 24.3037H539.241C539.747 24.3037 540.127 24.9366 539.874 25.3164L528.355 46.329C528.101 46.8354 527.595 47.0885 527.089 47.0885H426.456C422.532 47.0885 419.367 50.2531 419.367 54.1771V57.3417C419.367 61.2657 422.532 64.4303 426.456 64.4303H482.279C493.038 64.4303 501.139 67.3417 506.709 73.2911C512.279 79.2404 515.063 86.7088 515.063 96.0759C515.063 105.443 512.279 113.038 506.709 118.861C501.139 124.683 493.038 127.595 482.279 127.595Z" fill="#4CBB7C"/>
<path d="M58.9874 127.595H31.3925C30.7596 127.595 30.2533 126.835 30.633 126.202L79.4938 37.2151C83.7976 29.2404 92.152 24.3037 101.266 24.3037C110.38 24.3037 112.658 26.329 117.089 29.9999C118.987 31.5189 120.506 33.4176 121.772 35.443L152.911 82.7847C154.177 84.4303 156.709 84.4303 157.975 82.7847L204.304 34.9366C205.063 34.1771 205.823 33.2911 206.456 32.5316C211.266 27.3417 217.975 24.3037 225.19 24.3037H249.494C250.127 24.3037 250.76 24.81 250.76 25.5695V126.582C250.76 127.215 250.253 127.721 249.62 127.721H225.696C225.063 127.721 224.684 127.215 224.684 126.582V53.1645C224.684 52.1518 223.544 51.7721 222.911 52.5316L178.101 97.7214C177.468 98.3543 176.962 98.9872 176.329 99.6202C166.329 110.633 149.874 111.772 138.481 103.038C136.076 101.139 134.051 98.8607 132.405 96.329L103.291 52.2784C102.532 51.2657 101.013 51.5189 100.38 52.5316L60.633 126.582C60.3798 127.089 59.7469 127.468 59.114 127.468" fill="#4CBB7C"/>
<path d="M561.139 53.5442C553.038 53.5442 546.456 46.9619 546.456 38.9873C546.456 31.0126 553.038 24.4303 561.139 24.4303C569.241 24.4303 575.696 31.0126 575.696 38.9873C575.696 46.9619 569.114 53.5442 561.139 53.5442Z" fill="#4CBB7C"/>
</svg>
