<svg width="600" height="155" viewBox="0 0 600 155" fill="none" xmlns="http://www.w3.org/2000/svg">
<path d="M386.84 25.0633V126.203C386.84 126.835 386.333 127.342 385.7 127.342H366.333C361.017 127.342 355.827 125.063 352.283 121.139L291.776 53.9241V126.329C291.776 126.835 291.27 127.342 290.764 127.342H266.966C266.46 127.342 265.954 126.835 265.954 126.329V25.1899C265.954 24.557 266.46 24.0507 267.093 24.0507H292.156C297.473 24.0507 302.662 26.3291 306.207 30.2532L360.89 90.7595V25.0633C360.89 24.557 361.397 24.0507 361.903 24.0507H385.827C386.333 24.0507 386.84 24.557 386.84 25.0633Z" fill="#0C202D"/>
<path d="M482.156 127.342H399.624C399.118 127.342 398.738 126.962 398.738 126.456V105.316C398.738 104.81 399.118 104.43 399.624 104.43H485.7C489.624 104.43 492.789 101.266 492.789 97.3418V94.1772C492.789 90.2532 489.624 87.0886 485.7 87.0886H429.878C419.118 87.0886 411.017 84.1772 405.447 78.3545C399.878 72.5317 397.093 64.9367 397.093 55.5696C397.093 46.2026 399.878 38.6076 405.447 32.7848C411.017 26.9621 419.118 24.0507 429.878 24.0507H539.118C539.624 24.0507 540.004 24.6836 539.751 25.0633L528.232 46.076C527.979 46.5823 527.473 46.8355 526.966 46.8355H426.333C422.409 46.8355 419.245 50 419.245 53.9241V57.0886C419.245 61.0127 422.409 64.1772 426.333 64.1772H482.156C492.916 64.1772 501.017 67.0886 506.586 73.038C512.156 78.8608 514.941 86.4557 514.941 95.8228C514.941 105.19 512.156 112.785 506.586 118.608C501.017 124.43 492.916 127.342 482.156 127.342Z" fill="#0C202D"/>
<path d="M58.865 127.342H31.2701C30.6372 127.342 30.1308 126.582 30.5106 125.949L79.3713 36.962C83.6751 28.9874 92.0296 24.0507 101.143 24.0507C110.257 24.0507 112.536 26.076 116.966 29.7469C118.865 31.2658 120.384 33.1646 121.65 35.1899L152.789 82.5317C154.055 84.1772 156.587 84.1772 157.852 82.5317L204.181 34.6836C204.941 33.9241 205.7 33.038 206.333 32.2785C211.143 27.0886 217.852 24.0507 225.068 24.0507H249.371C250.004 24.0507 250.637 24.557 250.637 25.3165V126.329C250.637 126.962 250.131 127.468 249.498 127.468H225.574C224.941 127.468 224.561 126.962 224.561 126.329V52.9114C224.561 51.8988 223.422 51.519 222.789 52.2785L177.979 97.4684C177.346 98.1013 176.84 98.7342 176.207 99.3671C166.207 110.38 149.751 111.519 138.359 102.785C135.954 100.886 133.928 98.6076 132.283 96.076L103.169 52.0253C102.409 51.0127 100.89 51.2659 100.257 52.2785L60.5106 126.329C60.2574 126.835 59.6245 127.215 58.9916 127.215" fill="#0C202D"/>
<path d="M560.89 53.2912C552.789 53.2912 546.207 46.7089 546.207 38.7342C546.207 30.7595 552.789 24.1772 560.89 24.1772C568.992 24.1772 575.447 30.7595 575.447 38.7342C575.447 46.7089 568.865 53.2912 560.89 53.2912Z" fill="#0C202D"/>
</svg>
